<svg id="svg" version="1.1" xmlns="http://www.w3.org/2000/svg" xmlns:xlink="http://www.w3.org/1999/xlink" width="400" height="59.880239520958085" viewBox="0, 0, 400,59.880239520958085"><g id="svgg"><path id="path0" d="M258.193 5.838 C 257.591 5.925,257.159 6.104,256.859 6.390 C 256.237 6.983,255.021 7.465,253.438 7.745 C 250.822 8.209,250.250 8.341,250.197 8.495 C 249.979 9.135,249.326 9.778,248.663 10.006 C 247.527 10.395,247.204 10.621,246.917 11.225 C 246.773 11.530,246.372 11.937,246.027 12.132 C 245.296 12.542,244.919 12.930,244.515 13.682 C 244.355 13.980,243.968 14.362,243.654 14.530 C 242.976 14.894,242.509 15.456,242.503 15.917 C 242.496 16.468,241.873 17.320,241.265 17.610 C 240.701 17.879,240.689 17.906,240.337 19.816 C 239.869 22.351,239.408 23.736,238.803 24.426 C 237.730 25.648,237.671 31.884,238.723 32.936 C 239.389 33.602,239.678 34.405,240.225 37.111 C 240.558 38.758,240.815 39.667,240.948 39.667 C 241.391 39.667,242.296 40.675,242.481 41.375 C 242.706 42.226,242.907 42.494,243.644 42.923 C 243.952 43.103,244.371 43.550,244.573 43.917 C 244.793 44.315,245.313 44.830,245.862 45.196 C 246.392 45.549,246.869 46.017,246.986 46.299 C 247.203 46.823,247.494 47.019,248.648 47.416 C 249.423 47.683,249.952 48.169,250.097 48.746 C 250.174 49.052,250.456 49.147,252.301 49.485 C 255.338 50.042,256.378 50.417,257.000 51.182 C 257.516 51.817,258.717 51.831,314.917 51.829 C 372.034 51.827,372.226 51.825,372.983 51.100 C 373.589 50.520,374.836 50.002,376.231 49.751 C 379.804 49.109,379.693 49.145,379.937 48.562 C 380.208 47.913,380.636 47.592,381.709 47.236 C 382.323 47.032,382.614 46.813,382.926 46.319 C 383.151 45.961,383.623 45.488,383.973 45.267 C 384.574 44.888,385.029 44.408,385.710 43.435 C 385.871 43.205,386.206 42.919,386.454 42.800 C 386.918 42.577,387.092 42.311,387.648 40.969 C 387.893 40.378,388.131 40.106,388.626 39.854 C 389.329 39.495,389.348 39.441,389.828 36.413 C 390.080 34.824,391.033 32.667,391.482 32.667 C 392.289 32.667,391.993 25.294,391.152 24.433 C 390.575 23.843,389.985 22.041,389.549 19.544 C 389.275 17.970,389.218 17.826,388.814 17.685 C 388.191 17.468,387.734 16.919,387.507 16.113 C 387.261 15.242,387.076 15.000,386.286 14.518 C 385.940 14.306,385.511 13.848,385.333 13.499 C 384.994 12.835,384.277 12.167,383.903 12.167 C 383.664 12.167,382.833 11.162,382.833 10.874 C 382.833 10.672,381.529 10.000,381.137 10.000 C 380.790 10.000,380.017 9.207,379.896 8.728 C 379.824 8.441,379.643 8.316,379.191 8.239 C 375.254 7.573,373.914 7.180,373.202 6.484 C 372.794 6.085,372.461 5.945,371.634 5.825 C 370.349 5.639,259.472 5.652,258.193 5.838 M270.943 20.915 C 273.622 21.711,274.074 23.360,271.860 24.262 C 270.822 24.685,270.534 24.721,267.417 24.815 C 265.583 24.871,263.990 24.977,263.875 25.052 C 263.697 25.166,263.538 29.929,263.708 30.023 C 263.731 30.036,265.175 30.097,266.917 30.159 C 270.667 30.293,271.172 30.438,271.654 31.514 C 272.571 33.561,271.387 34.331,267.317 34.332 C 265.861 34.333,264.485 34.414,264.192 34.516 L 263.667 34.699 263.667 37.090 C 263.667 40.006,263.248 39.724,267.756 39.841 C 269.777 39.894,271.513 39.988,271.614 40.051 C 272.027 40.306,272.860 39.952,273.260 39.352 C 274.589 37.353,277.415 37.112,278.344 38.919 L 278.772 39.750 281.428 39.750 L 284.083 39.750 284.202 38.443 C 284.337 36.954,284.166 36.511,283.319 36.161 C 283.030 36.041,282.642 35.650,282.397 35.232 C 282.073 34.678,281.851 34.490,281.446 34.425 C 278.556 33.956,278.179 33.798,277.629 32.827 C 277.320 32.283,277.074 32.095,276.298 31.810 C 275.097 31.368,274.948 31.130,274.518 28.967 C 273.786 25.285,274.191 23.520,275.904 22.931 C 276.357 22.775,276.599 22.542,276.878 21.987 C 277.467 20.820,277.712 20.758,281.917 20.697 C 287.541 20.617,287.829 20.725,288.239 23.083 C 288.367 23.817,288.524 24.625,288.588 24.879 C 288.686 25.268,288.612 25.429,288.116 25.897 C 286.894 27.049,285.499 26.957,284.816 25.680 C 284.137 24.410,280.818 24.426,280.277 25.702 C 280.150 26.004,279.766 26.502,279.424 26.810 C 278.748 27.418,278.777 27.529,279.688 27.819 C 280.430 28.056,280.837 28.488,281.170 29.392 L 281.425 30.083 282.758 30.183 C 284.987 30.349,285.663 30.698,285.954 31.830 C 286.085 32.340,286.186 32.426,286.798 32.547 C 287.625 32.711,288.411 33.431,288.557 34.158 C 288.619 34.472,288.811 34.740,289.051 34.849 C 290.673 35.588,290.781 39.634,289.205 40.613 C 288.598 40.990,288.226 41.444,287.853 42.265 C 287.229 43.636,285.808 44.006,281.218 43.991 C 275.718 43.973,275.258 43.820,274.657 41.802 C 274.248 40.429,273.667 40.264,273.667 41.520 C 273.667 43.604,271.970 44.049,264.333 43.968 C 257.055 43.892,257.817 45.286,257.873 32.137 C 257.922 20.767,257.854 21.350,259.182 20.884 C 260.087 20.567,269.858 20.593,270.943 20.915 M302.886 21.226 C 304.068 21.806,304.700 22.717,305.083 24.390 C 305.285 25.272,305.458 25.626,305.845 25.952 C 307.259 27.142,307.259 30.358,305.845 31.548 C 305.546 31.800,305.276 32.279,305.108 32.855 C 304.820 33.847,304.343 34.395,303.617 34.567 C 303.269 34.649,303.070 34.863,302.835 35.412 C 302.402 36.422,301.844 36.677,299.855 36.773 C 298.972 36.815,298.006 36.887,297.708 36.933 L 297.167 37.015 297.167 39.643 L 297.167 42.271 296.708 42.698 C 294.943 44.345,292.097 44.246,291.522 42.517 C 291.254 41.712,291.258 23.042,291.526 22.147 C 291.939 20.767,292.337 20.673,297.583 20.715 L 301.917 20.750 302.886 21.226 M318.365 20.863 C 319.065 21.072,319.597 21.663,319.692 22.336 C 319.733 22.631,319.870 22.766,320.167 22.807 C 322.676 23.149,322.878 30.985,320.401 31.931 C 319.493 32.278,319.475 32.438,320.328 32.583 C 321.202 32.730,321.724 33.164,321.988 33.963 C 322.122 34.371,322.388 34.726,322.695 34.907 C 323.301 35.265,323.735 36.190,324.087 37.875 C 324.421 39.477,324.494 39.478,324.998 37.888 C 325.429 36.530,325.947 35.756,326.549 35.573 C 327.077 35.412,327.489 35.007,327.853 34.294 C 328.255 33.507,328.683 33.230,330.380 32.661 C 331.634 32.240,331.755 32.160,331.851 31.689 C 331.961 31.150,332.410 30.366,332.771 30.083 C 332.887 29.992,333.147 29.467,333.347 28.917 C 333.547 28.367,333.773 27.838,333.848 27.742 C 333.930 27.637,333.756 27.357,333.414 27.043 C 333.046 26.706,332.776 26.254,332.656 25.775 C 332.435 24.901,332.291 24.838,330.500 24.838 C 329.087 24.838,328.929 24.902,328.774 25.534 C 328.156 28.063,325.055 27.256,325.109 24.580 C 325.179 21.185,325.903 20.751,331.500 20.750 C 335.668 20.750,336.005 20.838,336.357 22.014 C 336.524 22.570,336.678 22.741,337.204 22.951 C 339.328 23.801,339.237 31.411,337.094 32.186 C 336.698 32.329,336.505 32.518,336.444 32.824 C 336.299 33.548,335.700 34.147,334.883 34.385 C 334.229 34.576,334.083 34.701,333.863 35.262 C 333.536 36.095,333.099 36.480,332.344 36.601 C 331.571 36.725,331.250 36.972,331.104 37.556 C 330.956 38.153,330.331 38.738,329.627 38.940 C 329.251 39.048,329.083 39.197,329.083 39.423 C 329.083 39.738,329.251 39.753,333.500 39.833 C 338.341 39.925,338.670 39.992,339.875 41.129 C 340.686 41.895,340.211 42.805,338.629 43.519 C 337.772 43.905,337.616 43.917,332.417 43.971 C 325.270 44.046,325.319 44.059,323.048 41.428 C 322.458 40.744,322.114 40.873,321.511 42.004 C 320.856 43.233,320.450 43.513,318.933 43.779 C 317.464 44.037,312.809 44.063,311.674 43.819 C 310.565 43.581,308.318 41.492,307.996 40.398 C 307.883 40.012,307.522 39.448,307.169 39.106 C 305.918 37.892,305.947 36.166,307.236 35.035 C 307.537 34.770,307.834 34.352,307.896 34.106 C 308.056 33.469,308.537 33.049,309.365 32.824 C 309.760 32.716,310.177 32.602,310.292 32.570 C 310.745 32.441,310.476 32.006,309.823 31.811 C 308.368 31.374,308.094 30.534,308.191 26.794 C 308.262 24.074,308.472 23.474,309.536 22.949 C 309.958 22.742,310.204 22.476,310.332 22.088 C 310.719 20.915,311.480 20.683,314.981 20.674 C 316.613 20.670,317.974 20.745,318.365 20.863 M354.016 20.858 C 355.017 21.158,355.405 21.683,355.405 22.739 C 355.405 24.558,354.782 24.763,348.542 24.992 C 348.427 24.997,348.332 25.131,348.330 25.292 C 348.321 26.010,347.676 27.013,347.047 27.286 L 346.417 27.560 347.083 27.687 C 347.450 27.757,348.575 27.819,349.583 27.825 C 353.136 27.845,354.298 28.230,354.947 29.602 C 355.525 30.822,355.674 30.921,356.558 30.674 C 357.897 30.299,358.125 29.975,358.436 28.000 C 358.791 25.743,359.027 25.350,361.466 22.966 C 363.832 20.654,363.567 20.750,367.583 20.750 C 371.590 20.750,372.183 20.996,372.227 22.678 C 372.270 24.310,371.569 24.678,368.083 24.851 C 366.617 24.923,365.363 24.987,365.298 24.992 C 365.233 24.996,365.095 25.319,364.991 25.708 C 364.775 26.520,364.461 26.922,363.750 27.300 L 363.250 27.566 363.917 27.690 C 364.283 27.758,365.446 27.820,366.500 27.827 C 369.796 27.850,371.112 28.290,371.673 29.558 C 371.990 30.276,372.208 30.532,373.107 31.249 C 374.863 32.648,374.716 38.483,372.904 39.309 C 372.656 39.422,372.449 39.759,372.285 40.320 C 371.445 43.185,369.905 44.001,365.344 43.999 C 362.026 43.998,361.344 43.742,360.938 42.346 C 360.740 41.666,360.638 41.556,360.000 41.333 C 359.010 40.987,358.706 40.492,358.364 38.664 C 358.084 37.165,358.058 37.109,357.875 37.583 C 357.620 38.245,357.211 38.696,356.405 39.205 C 355.865 39.545,355.687 39.796,355.451 40.544 C 355.292 41.050,355.050 41.556,354.914 41.669 C 354.778 41.782,354.667 41.963,354.667 42.073 C 354.667 43.248,352.582 43.917,348.917 43.917 C 345.039 43.917,344.167 43.593,344.167 42.155 C 344.167 41.860,343.663 41.333,343.383 41.333 C 342.445 41.333,341.905 40.497,341.528 38.459 C 341.431 37.933,341.104 36.995,340.802 36.376 C 339.961 34.652,339.983 32.308,340.859 30.500 C 341.250 29.691,341.536 28.779,341.669 27.917 C 341.993 25.816,342.263 25.365,344.561 23.089 C 346.146 21.519,346.777 21.003,347.272 20.872 C 348.177 20.632,353.228 20.622,354.016 20.858 M36.322 22.354 C 35.881 23.179,36.516 23.714,37.251 23.136 L 37.713 22.773 37.264 22.386 C 36.709 21.909,36.563 21.904,36.322 22.354 M53.639 22.412 C 53.299 23.156,54.010 23.634,54.557 23.029 C 54.815 22.744,54.808 22.701,54.447 22.362 C 53.958 21.902,53.868 21.908,53.639 22.412 M137.472 22.412 C 137.133 23.156,137.843 23.634,138.391 23.029 C 138.649 22.744,138.642 22.701,138.281 22.362 C 137.791 21.902,137.702 21.908,137.472 22.412 M72.126 22.471 C 72.083 22.635,72.084 23.011,72.127 23.309 L 72.207 23.849 72.585 23.299 C 72.992 22.709,72.983 22.592,72.509 22.338 C 72.271 22.211,72.186 22.240,72.126 22.471 M84.333 23.646 C 84.333 24.812,84.368 24.965,84.625 24.928 C 85.101 24.859,85.143 22.755,84.674 22.504 C 84.344 22.327,84.333 22.364,84.333 23.646 M103.263 24.333 C 103.196 24.928,103.219 25.452,103.320 25.625 C 103.446 25.842,103.491 25.584,103.495 24.625 C 103.501 23.078,103.417 22.972,103.263 24.333 M120.698 24.708 C 120.744 25.185,120.815 25.256,121.292 25.302 C 121.956 25.366,121.974 25.197,121.366 24.615 C 120.758 24.032,120.634 24.050,120.698 24.708 M46.582 24.973 C 46.445 25.111,46.491 26.000,46.635 26.000 C 46.710 26.000,46.978 25.784,47.230 25.521 L 47.690 25.041 47.177 24.966 C 46.895 24.925,46.628 24.928,46.582 24.973 M130.416 24.973 C 130.278 25.111,130.324 26.000,130.469 26.000 C 130.543 26.000,130.811 25.784,131.064 25.521 L 131.523 25.041 131.011 24.966 C 130.729 24.925,130.461 24.928,130.416 24.973 M297.542 25.005 C 297.169 25.155,297.167 25.179,297.167 28.728 L 297.167 32.301 297.673 32.477 C 298.338 32.709,298.929 32.443,299.148 31.814 C 299.239 31.554,299.562 31.194,299.865 31.016 C 300.913 30.398,301.000 30.227,301.000 28.793 C 301.000 27.271,300.868 26.945,300.108 26.584 C 299.799 26.437,299.395 26.037,299.193 25.678 C 298.721 24.838,298.342 24.684,297.542 25.005 M314.559 24.953 C 314.454 25.024,314.278 25.419,314.167 25.830 C 314.043 26.294,313.761 26.760,313.423 27.062 L 312.880 27.547 313.361 27.982 C 313.626 28.221,313.977 28.792,314.141 29.250 L 314.439 30.083 315.285 30.062 C 316.651 30.027,317.787 28.620,317.599 27.197 C 317.423 25.874,315.397 24.379,314.559 24.953 M70.522 26.390 C 70.420 26.513,70.385 26.663,70.444 26.722 C 70.570 26.847,71.000 26.530,71.000 26.313 C 71.000 26.093,70.732 26.137,70.522 26.390 M111.077 27.059 C 110.435 27.977,110.869 30.833,111.652 30.833 L 112.083 30.834 112.083 28.845 C 112.083 26.693,111.749 26.100,111.077 27.059 M52.833 29.804 C 52.833 29.880,53.028 30.124,53.265 30.346 L 53.697 30.750 53.390 30.209 C 53.099 29.697,52.833 29.503,52.833 29.804 M136.667 29.804 C 136.667 29.880,136.861 30.124,137.098 30.346 L 137.530 30.750 137.223 30.209 C 136.933 29.697,136.667 29.503,136.667 29.804 M68.004 31.125 C 67.890 31.560,67.765 32.042,67.725 32.195 C 67.671 32.403,67.736 32.451,67.986 32.385 C 68.441 32.266,68.985 30.698,68.645 30.483 C 68.271 30.246,68.219 30.298,68.004 31.125 M36.833 31.813 C 36.833 32.397,37.143 32.685,37.634 32.557 C 38.110 32.432,38.096 32.321,37.533 31.781 C 36.941 31.214,36.833 31.219,36.833 31.813 M96.749 31.834 C 96.418 32.200,96.503 32.432,96.909 32.276 C 97.051 32.222,97.167 32.025,97.167 31.839 C 97.167 31.418,97.126 31.418,96.749 31.834 M122.429 32.049 C 122.354 32.306,122.340 32.562,122.397 32.619 C 122.583 32.805,122.693 32.539,122.628 32.057 L 122.565 31.583 122.429 32.049 M45.768 32.264 C 45.560 32.806,45.669 33.101,45.917 32.667 C 46.048 32.438,46.158 32.194,46.161 32.125 C 46.172 31.892,45.870 31.998,45.768 32.264 M129.601 32.264 C 129.393 32.806,129.502 33.101,129.750 32.667 C 129.881 32.438,129.991 32.194,129.994 32.125 C 130.005 31.892,129.703 31.998,129.601 32.264 M348.000 32.333 C 347.817 32.517,347.667 32.803,347.667 32.969 C 347.667 33.293,346.986 34.004,346.375 34.319 C 346.031 34.496,346.000 34.628,346.000 35.917 C 346.000 37.205,346.031 37.338,346.375 37.515 C 347.025 37.849,347.647 38.529,347.755 39.025 C 347.909 39.724,348.296 39.861,349.598 39.677 C 350.943 39.486,350.870 39.562,351.240 37.938 C 351.561 36.523,351.487 32.647,351.129 32.208 C 350.826 31.836,348.400 31.933,348.000 32.333 M364.809 32.286 C 364.669 32.449,364.457 32.831,364.337 33.133 C 364.213 33.447,363.808 33.898,363.393 34.183 L 362.667 34.683 362.667 35.917 L 362.667 37.151 363.396 37.653 C 363.870 37.979,364.219 38.387,364.391 38.819 C 364.757 39.732,365.079 39.868,366.425 39.677 C 367.036 39.591,367.557 39.497,367.583 39.468 C 368.047 38.963,368.343 34.521,368.030 32.750 L 367.912 32.083 366.487 32.036 C 365.287 31.995,365.023 32.035,364.809 32.286 M44.203 34.428 C 44.116 34.585,44.067 34.835,44.095 34.982 C 44.123 35.129,44.192 35.466,44.248 35.729 L 44.350 36.209 44.742 35.841 C 45.170 35.438,45.406 34.333,45.063 34.333 C 44.952 34.333,44.749 34.290,44.612 34.238 C 44.472 34.184,44.293 34.268,44.203 34.428 M94.295 34.443 C 94.018 34.720,94.280 35.674,94.629 35.663 C 94.928 35.654,95.536 35.042,95.356 34.931 C 95.252 34.866,95.167 34.668,95.167 34.490 C 95.167 34.088,94.677 34.061,94.295 34.443 M128.037 34.428 C 127.949 34.585,127.900 34.835,127.928 34.982 C 127.957 35.129,128.026 35.466,128.082 35.729 L 128.184 36.209 128.575 35.841 C 129.004 35.438,129.239 34.333,128.897 34.333 C 128.785 34.333,128.582 34.290,128.445 34.238 C 128.306 34.184,128.127 34.268,128.037 34.428 M314.482 34.517 C 314.244 34.606,313.964 34.863,313.861 35.090 C 313.758 35.316,313.439 35.643,313.153 35.818 C 312.262 36.359,312.028 36.920,312.283 37.904 C 312.402 38.363,312.500 38.875,312.500 39.040 C 312.500 39.650,316.940 40.201,317.579 39.671 C 317.876 39.423,317.938 37.184,317.674 36.186 C 317.587 35.855,317.474 35.382,317.424 35.135 C 317.344 34.745,317.230 34.673,316.541 34.583 C 316.106 34.525,315.563 34.451,315.333 34.417 C 315.104 34.384,314.721 34.429,314.482 34.517 M118.257 34.655 C 118.134 34.855,118.447 35.052,118.669 34.915 C 118.856 34.800,118.733 34.500,118.500 34.500 C 118.419 34.500,118.310 34.570,118.257 34.655 M104.000 35.500 C 104.000 35.592,104.169 35.666,104.375 35.664 C 104.678 35.662,104.702 35.631,104.500 35.500 C 104.177 35.291,104.000 35.291,104.000 35.500 M65.511 36.640 C 65.020 37.825,65.703 38.713,66.238 37.585 C 66.598 36.826,66.528 36.266,66.065 36.200 C 65.810 36.163,65.659 36.283,65.511 36.640 M105.639 37.176 C 105.703 37.847,105.706 37.850,106.060 37.553 C 106.256 37.388,106.447 37.234,106.485 37.211 C 106.605 37.137,105.956 36.500,105.761 36.500 C 105.643 36.500,105.598 36.749,105.639 37.176 M36.860 38.925 C 36.598 39.500,36.614 40.167,36.891 40.167 C 37.425 40.167,38.049 38.906,37.643 38.648 C 37.265 38.409,37.063 38.480,36.860 38.925 M104.000 38.667 C 104.000 38.875,104.177 38.875,104.500 38.667 C 104.702 38.536,104.678 38.505,104.375 38.503 C 104.169 38.501,104.000 38.575,104.000 38.667 M120.707 38.831 C 120.432 39.271,120.446 39.500,120.746 39.500 C 120.881 39.500,121.108 39.275,121.250 39.000 C 121.564 38.392,121.076 38.240,120.707 38.831 M117.879 41.629 C 117.632 41.821,117.555 41.991,117.650 42.142 C 117.839 42.444,118.425 42.137,118.547 41.672 C 118.656 41.256,118.381 41.239,117.879 41.629 M34.412 41.841 C 34.283 42.049,34.624 42.500,34.911 42.500 C 35.307 42.500,35.724 41.891,35.410 41.771 C 35.000 41.613,34.532 41.646,34.412 41.841 " stroke="none" fill="#4e89f1" fill-rule="evenodd"></path><path id="path1" d="M253.500 4.010 C 252.076 4.190,251.404 4.560,251.051 5.360 C 250.752 6.040,250.160 6.330,249.072 6.332 C 247.638 6.335,246.167 7.211,246.167 8.063 C 246.167 8.334,245.370 8.833,244.938 8.833 C 244.484 8.833,243.681 9.668,243.572 10.254 C 243.446 10.921,243.310 11.044,242.402 11.303 C 241.707 11.501,241.482 11.791,240.995 13.118 C 240.855 13.498,240.637 13.706,240.235 13.838 C 239.224 14.172,238.894 14.892,238.576 17.465 C 238.472 18.305,238.433 18.363,237.747 18.686 C 236.278 19.376,236.111 20.583,236.212 29.805 C 236.265 34.589,236.349 36.793,236.498 37.295 C 236.705 37.992,237.476 38.833,237.909 38.833 C 238.303 38.833,238.471 39.236,238.663 40.641 C 238.917 42.494,239.205 43.056,240.152 43.541 C 240.798 43.872,240.955 44.054,241.167 44.711 C 241.469 45.653,241.718 45.918,242.567 46.200 C 243.238 46.423,243.327 46.526,243.681 47.478 C 243.904 48.076,244.689 48.665,245.266 48.666 C 245.663 48.667,246.167 49.150,246.167 49.530 C 246.167 50.334,247.401 50.928,249.578 51.172 C 250.217 51.244,250.761 51.366,250.787 51.443 C 251.297 52.966,251.978 53.317,254.795 53.509 C 257.517 53.695,372.202 53.698,375.084 53.512 C 377.797 53.337,378.395 53.114,378.839 52.109 C 379.182 51.333,379.462 51.175,380.500 51.167 C 382.079 51.155,383.523 50.430,383.747 49.536 C 383.874 49.030,384.280 48.680,384.750 48.671 C 385.428 48.659,386.049 48.100,386.335 47.246 C 386.579 46.515,386.684 46.399,387.242 46.243 C 388.046 46.017,388.622 45.504,388.755 44.895 C 388.926 44.110,389.204 43.667,389.526 43.667 C 390.431 43.667,391.327 41.946,391.331 40.197 C 391.334 39.362,391.569 38.833,391.938 38.833 C 393.428 38.833,393.819 36.746,393.828 28.750 C 393.837 21.173,393.550 19.387,392.222 18.750 C 391.493 18.401,391.341 18.128,391.334 17.167 C 391.329 16.521,390.972 15.054,390.701 14.565 C 390.605 14.392,390.166 14.063,389.726 13.833 C 389.087 13.501,388.903 13.308,388.818 12.879 C 388.661 12.092,388.266 11.578,387.638 11.345 C 386.709 11.000,386.618 10.920,386.383 10.241 C 386.087 9.385,385.820 9.136,384.878 8.833 C 384.220 8.622,384.039 8.465,383.708 7.818 C 383.220 6.867,382.590 6.544,380.776 6.316 C 379.415 6.146,379.000 5.973,379.000 5.576 C 379.000 5.150,378.160 4.371,377.461 4.150 C 376.645 3.892,255.522 3.755,253.500 4.010 M372.357 4.839 C 374.482 5.051,375.534 5.342,376.908 6.097 C 377.493 6.419,378.559 6.871,379.277 7.103 C 379.996 7.335,380.846 7.731,381.167 7.983 C 381.488 8.235,382.313 8.820,383.000 9.284 C 384.648 10.397,387.249 12.999,388.424 14.711 C 388.942 15.466,389.546 16.339,389.768 16.652 C 389.989 16.965,390.317 17.695,390.496 18.275 C 390.675 18.855,391.167 20.003,391.589 20.827 C 393.418 24.394,393.391 32.941,391.540 36.707 C 391.077 37.647,390.586 38.801,390.448 39.270 C 390.144 40.305,389.781 41.031,389.417 41.333 C 389.267 41.458,388.805 42.090,388.389 42.738 C 387.402 44.278,384.580 47.126,383.000 48.175 C 382.313 48.632,381.462 49.226,381.111 49.495 C 380.759 49.764,380.047 50.106,379.528 50.255 C 379.008 50.404,377.831 50.896,376.911 51.348 C 373.778 52.889,379.922 52.750,315.167 52.750 C 251.035 52.750,256.254 52.858,253.333 51.470 C 252.371 51.012,251.127 50.495,250.569 50.321 C 250.011 50.146,249.298 49.820,248.985 49.596 C 248.673 49.372,247.817 48.783,247.083 48.286 C 245.379 47.132,242.731 44.495,241.630 42.857 C 241.159 42.156,240.570 41.321,240.320 41.000 C 240.071 40.679,239.666 39.817,239.420 39.083 C 239.174 38.350,238.719 37.284,238.409 36.714 C 236.506 33.213,236.452 24.701,238.310 20.929 C 238.765 20.006,239.299 18.748,239.497 18.134 C 239.695 17.520,240.095 16.699,240.387 16.310 C 240.678 15.920,241.292 15.065,241.750 14.409 C 242.872 12.803,245.482 10.220,246.929 9.284 C 247.577 8.865,248.209 8.400,248.333 8.250 C 248.636 7.886,249.339 7.534,250.567 7.134 C 251.126 6.952,252.221 6.483,253.000 6.092 C 254.577 5.302,255.455 5.055,257.417 4.850 C 259.436 4.639,370.250 4.629,372.357 4.839 M26.083 5.184 C 24.218 5.357,22.834 5.723,21.737 6.333 C 21.272 6.592,20.180 7.026,19.312 7.297 C 17.509 7.861,16.747 8.217,16.616 8.558 C 16.566 8.689,15.912 9.161,15.162 9.606 C 13.868 10.376,13.566 10.630,12.323 11.996 C 12.033 12.315,11.582 12.733,11.322 12.925 C 10.835 13.284,9.938 14.493,9.433 15.468 C 9.277 15.771,8.851 16.333,8.488 16.718 C 8.111 17.116,7.752 17.703,7.654 18.083 C 7.267 19.582,6.767 20.963,6.328 21.750 C 4.627 24.795,4.625 32.788,6.323 35.702 C 6.726 36.392,7.052 37.251,7.503 38.808 C 7.757 39.686,8.035 40.230,8.483 40.725 C 8.827 41.105,9.401 41.904,9.757 42.500 C 10.619 43.943,13.668 46.958,15.129 47.813 C 15.746 48.174,16.438 48.670,16.667 48.916 C 17.220 49.511,17.414 49.604,19.123 50.099 C 19.926 50.331,21.096 50.782,21.722 51.101 C 24.201 52.363,18.227 52.250,82.583 52.250 C 147.228 52.250,141.240 52.365,143.583 51.076 C 144.133 50.773,145.228 50.340,146.017 50.113 C 147.592 49.660,148.412 49.289,148.617 48.937 C 148.690 48.811,149.409 48.283,150.214 47.765 C 151.956 46.645,154.652 43.988,155.494 42.561 C 155.811 42.023,156.387 41.225,156.773 40.787 C 157.159 40.349,157.527 39.749,157.590 39.454 C 157.813 38.408,158.472 36.570,158.978 35.583 C 160.595 32.428,160.600 25.002,158.986 21.805 C 158.444 20.731,157.980 19.498,157.663 18.290 C 157.545 17.836,157.194 17.194,156.844 16.790 C 156.508 16.401,155.905 15.558,155.505 14.917 C 154.587 13.446,151.508 10.390,150.211 9.662 C 149.682 9.366,148.939 8.838,148.558 8.490 C 148.175 8.139,147.542 7.767,147.141 7.657 C 145.704 7.260,144.397 6.776,143.333 6.247 C 141.968 5.568,141.176 5.380,138.811 5.171 C 136.485 4.965,28.309 4.978,26.083 5.184 M35.905 21.192 C 37.539 21.400,38.055 21.634,38.416 22.332 C 39.101 23.658,36.989 24.494,32.942 24.499 C 31.146 24.501,30.833 24.764,30.833 26.275 C 30.833 27.894,31.209 28.199,33.320 28.292 C 35.231 28.377,36.667 29.011,36.667 29.770 C 36.667 29.884,36.979 30.189,37.360 30.447 C 38.311 31.092,38.639 31.588,38.926 32.818 C 39.061 33.398,39.314 34.072,39.487 34.315 C 39.766 34.706,39.775 34.806,39.571 35.171 C 39.238 35.766,38.995 36.712,38.742 38.387 C 38.497 40.018,38.061 40.796,37.191 41.157 C 36.913 41.272,36.607 41.576,36.494 41.848 C 35.892 43.302,34.671 43.620,30.004 43.539 C 26.343 43.475,25.469 42.940,25.833 40.984 C 26.277 38.599,27.666 37.692,28.497 39.244 C 29.140 40.447,33.366 40.539,33.742 39.359 C 33.791 39.207,34.126 38.770,34.487 38.386 C 35.890 36.899,35.930 34.796,34.583 33.394 C 34.079 32.870,33.667 32.393,33.667 32.334 C 33.667 32.063,32.404 31.667,31.536 31.665 C 26.895 31.659,26.027 31.028,26.240 27.814 C 26.309 26.770,26.414 25.156,26.474 24.225 C 26.617 22.018,26.813 21.779,28.917 21.241 C 29.980 20.970,33.937 20.942,35.905 21.192 M54.226 21.327 C 55.358 21.764,55.801 22.648,55.230 23.327 C 54.531 24.157,54.103 24.284,51.583 24.408 C 48.685 24.550,48.730 24.536,48.307 25.434 C 47.938 26.221,46.942 27.167,46.482 27.167 C 45.871 27.167,45.793 27.615,46.338 28.003 C 46.832 28.355,46.958 28.367,49.053 28.259 C 52.319 28.090,54.170 28.736,55.003 30.333 C 55.171 30.654,55.685 31.360,56.147 31.902 C 57.766 33.801,57.922 36.283,56.545 38.236 C 56.277 38.617,55.869 39.339,55.639 39.839 C 54.384 42.574,52.727 43.509,49.131 43.510 C 46.194 43.511,45.670 43.342,45.024 42.185 C 44.808 41.799,44.337 41.296,43.977 41.069 C 43.166 40.557,42.733 39.867,42.588 38.858 C 42.381 37.413,41.979 36.086,41.550 35.429 C 41.025 34.625,41.161 33.143,41.977 30.790 C 42.246 30.012,42.581 28.822,42.721 28.146 C 43.231 25.685,46.168 22.036,48.239 21.291 C 49.125 20.973,53.376 20.998,54.226 21.327 M71.362 21.179 C 73.102 21.531,73.481 21.679,73.895 22.171 C 74.431 22.808,74.290 23.287,73.246 24.376 C 72.836 24.804,72.500 25.232,72.500 25.327 C 72.500 25.859,71.247 28.118,70.648 28.665 C 70.007 29.251,69.962 29.357,69.749 30.784 C 69.471 32.642,69.204 33.300,68.481 33.903 C 67.703 34.553,67.671 34.632,67.404 36.534 C 67.274 37.460,67.057 38.600,66.921 39.067 C 66.785 39.534,66.558 40.347,66.416 40.872 C 66.118 41.980,65.861 42.258,64.481 42.970 L 63.470 43.491 62.822 43.161 C 61.380 42.425,61.557 39.256,63.171 36.910 C 63.824 35.961,63.940 35.625,64.249 33.797 C 64.587 31.798,64.745 31.410,65.603 30.476 C 66.107 29.927,66.392 29.418,66.583 28.726 C 67.081 26.916,67.384 26.252,67.963 25.701 C 68.281 25.398,68.497 25.108,68.444 25.056 C 68.131 24.742,66.152 24.505,63.822 24.503 C 60.753 24.500,59.864 24.297,58.864 23.375 L 58.187 22.750 58.733 22.203 C 59.825 21.106,60.348 21.017,65.696 21.008 C 68.478 21.003,70.845 21.075,71.362 21.179 M119.309 21.454 C 119.639 21.617,120.100 22.032,120.331 22.377 C 120.563 22.722,120.985 23.146,121.270 23.319 C 122.020 23.775,122.500 24.539,122.773 25.709 C 122.905 26.275,123.124 26.861,123.261 27.012 C 123.677 27.472,124.204 29.187,124.293 30.375 C 124.373 31.432,124.511 31.721,124.750 31.333 C 124.807 31.242,125.038 31.167,125.264 31.167 C 125.750 31.167,125.884 30.882,126.367 28.833 C 127.042 25.969,127.161 25.756,129.336 23.538 C 131.833 20.992,132.070 20.897,135.476 21.077 C 139.373 21.284,140.724 22.774,138.188 24.069 C 137.925 24.204,136.820 24.339,135.417 24.408 C 132.518 24.550,132.563 24.536,132.141 25.434 C 131.771 26.221,130.775 27.167,130.316 27.167 C 129.706 27.167,129.626 27.615,130.167 28.000 C 130.657 28.349,130.789 28.361,132.882 28.255 C 136.150 28.088,138.003 28.735,138.837 30.333 C 139.004 30.654,139.519 31.360,139.981 31.902 C 141.599 33.801,141.755 36.283,140.379 38.236 C 140.110 38.617,139.702 39.339,139.472 39.839 C 138.217 42.574,136.561 43.509,132.964 43.510 C 130.027 43.511,129.503 43.342,128.858 42.185 C 128.642 41.799,128.175 41.299,127.820 41.075 C 126.907 40.498,126.666 40.043,126.303 38.205 C 126.007 36.704,125.859 36.291,125.125 34.917 C 124.978 34.642,124.774 34.098,124.672 33.708 C 124.486 32.999,124.167 32.739,124.167 33.296 C 124.167 33.459,123.908 34.133,123.591 34.794 C 123.275 35.454,122.819 36.818,122.578 37.825 C 122.103 39.812,121.776 40.380,120.897 40.747 C 120.574 40.882,120.201 41.218,120.038 41.519 C 119.362 42.770,119.030 42.990,117.250 43.357 C 113.218 44.189,109.089 43.119,109.971 41.470 C 110.469 40.540,111.052 40.353,113.835 40.233 C 116.742 40.107,116.873 40.068,117.321 39.191 C 117.498 38.844,117.986 38.279,118.405 37.935 C 119.266 37.230,119.299 37.132,118.833 36.667 C 118.529 36.362,118.278 36.333,115.911 36.333 C 112.600 36.333,111.116 35.600,109.675 33.250 C 108.806 31.834,108.320 27.723,108.926 26.921 C 109.063 26.740,109.325 26.087,109.509 25.469 C 109.870 24.259,110.424 23.468,111.187 23.073 C 111.451 22.937,111.667 22.728,111.667 22.610 C 111.667 21.219,117.145 20.391,119.309 21.454 M84.573 21.484 C 85.183 21.587,85.518 21.760,85.865 22.148 L 86.333 22.672 86.333 32.178 C 86.333 42.480,86.349 42.290,85.423 42.897 C 85.103 43.107,84.916 43.134,84.676 43.005 C 84.500 42.911,83.924 42.833,83.397 42.833 C 82.642 42.833,82.356 42.756,82.052 42.471 L 81.667 42.109 81.667 34.816 L 81.667 27.523 81.173 27.171 C 80.902 26.978,80.110 26.711,79.414 26.578 C 76.139 25.951,76.062 24.548,79.250 23.584 C 80.309 23.263,80.463 23.159,80.917 22.453 C 81.748 21.159,82.103 21.065,84.573 21.484 M102.674 21.390 C 102.907 21.512,103.354 21.662,103.666 21.725 C 103.978 21.787,104.406 22.000,104.617 22.198 L 105.000 22.558 105.000 28.581 L 105.000 34.604 105.458 35.020 C 105.710 35.249,106.234 35.638,106.621 35.884 C 108.076 36.811,108.091 37.396,106.685 38.279 C 105.047 39.306,105.000 39.378,105.000 40.836 C 105.000 42.262,104.595 42.914,103.833 42.715 C 103.652 42.668,103.202 42.750,102.832 42.898 C 101.253 43.530,100.500 42.871,100.500 40.858 C 100.500 38.868,100.578 38.905,96.050 38.791 C 92.188 38.695,91.844 38.633,91.125 37.914 C 90.351 37.139,90.665 35.905,91.990 34.506 C 92.736 33.718,93.052 33.198,93.227 32.471 C 93.364 31.896,94.073 31.057,94.692 30.737 C 95.012 30.571,95.311 30.183,95.572 29.592 C 95.790 29.101,96.307 28.373,96.722 27.974 C 97.251 27.466,97.632 26.872,98.002 25.980 C 98.291 25.282,98.742 24.476,99.004 24.190 C 99.265 23.903,99.716 23.224,100.006 22.681 C 100.729 21.325,101.673 20.868,102.674 21.390 M260.667 21.866 C 260.254 21.957,259.748 22.187,259.542 22.378 L 259.167 22.725 259.167 32.333 L 259.167 41.942 259.542 42.291 C 260.661 43.334,270.187 43.287,271.802 42.231 C 272.940 41.487,271.255 40.969,267.250 40.833 C 263.926 40.720,264.055 40.747,262.208 39.783 C 261.845 39.594,261.833 39.509,261.833 37.149 L 261.833 34.711 262.458 34.300 C 263.664 33.507,264.525 33.333,267.241 33.333 C 270.891 33.333,272.004 32.585,270.000 31.480 C 269.712 31.321,268.706 31.224,266.737 31.167 C 263.974 31.086,263.862 31.069,262.904 30.578 L 261.917 30.073 261.871 27.550 L 261.825 25.027 263.018 24.430 L 264.211 23.833 266.831 23.833 C 269.553 23.833,270.166 23.726,271.130 23.079 L 271.677 22.712 271.281 22.452 C 270.153 21.713,269.798 21.666,265.521 21.685 C 263.264 21.694,261.079 21.776,260.667 21.866 M279.333 21.787 C 278.738 21.895,278.189 22.464,277.999 23.170 C 277.843 23.749,277.330 24.167,276.773 24.167 C 275.734 24.167,275.365 26.235,275.981 28.606 C 276.388 30.171,276.313 30.087,278.045 30.930 C 279.061 31.424,279.646 31.819,279.842 32.142 C 280.329 32.942,281.004 33.294,282.586 33.570 C 284.311 33.871,284.356 33.908,285.248 35.790 L 285.899 37.164 285.686 38.457 C 285.309 40.741,285.008 40.891,280.997 40.806 C 278.122 40.744,278.090 40.734,277.387 39.619 C 276.880 38.816,276.565 38.694,276.127 39.132 L 275.782 39.477 276.100 40.780 L 276.417 42.083 277.417 42.500 C 279.610 43.414,286.264 42.950,286.610 41.859 C 286.896 40.959,287.131 40.536,287.722 39.853 C 288.946 38.439,289.235 37.028,288.469 36.213 C 288.231 35.958,287.983 35.503,287.920 35.202 C 287.785 34.565,286.798 33.537,286.178 33.389 C 285.592 33.250,285.352 33.034,285.093 32.414 C 284.772 31.646,283.960 31.227,282.552 31.104 C 280.931 30.963,280.570 30.801,280.345 30.118 C 280.121 29.441,279.668 28.997,278.711 28.517 C 277.637 27.978,277.597 27.122,278.564 25.398 C 279.330 24.033,281.933 23.481,285.155 24.001 C 286.902 24.283,287.788 23.250,286.740 22.156 L 286.271 21.667 283.010 21.689 C 281.217 21.702,279.563 21.746,279.333 21.787 M294.250 21.863 C 293.792 21.950,293.248 22.179,293.042 22.373 L 292.667 22.725 292.667 32.337 C 292.667 43.598,292.538 42.921,294.554 42.234 L 295.333 41.969 295.333 39.520 L 295.333 37.072 295.874 36.744 C 297.021 36.049,297.733 35.852,299.132 35.843 C 300.761 35.832,301.671 35.461,302.178 34.601 C 302.356 34.299,302.681 33.971,302.900 33.871 C 303.581 33.561,304.176 32.596,304.427 31.395 C 304.556 30.777,304.738 30.195,304.831 30.102 C 305.085 29.848,305.037 27.721,304.766 27.197 C 304.637 26.947,304.450 26.302,304.350 25.763 C 304.044 24.106,302.988 22.678,301.582 22.017 C 300.755 21.628,296.007 21.528,294.250 21.863 M312.833 21.787 C 312.219 21.898,311.686 22.472,311.567 23.152 C 311.422 23.981,311.100 24.437,310.437 24.751 C 309.819 25.045,309.742 25.251,309.584 27.037 C 309.408 29.030,309.757 29.981,310.808 30.371 C 311.858 30.761,312.324 31.533,312.330 32.894 C 312.333 33.660,312.354 33.699,312.708 33.584 C 312.915 33.517,314.283 33.415,315.750 33.356 L 318.417 33.250 318.565 32.648 C 318.647 32.317,318.665 31.848,318.604 31.606 L 318.494 31.167 316.288 31.164 C 313.532 31.161,313.333 31.079,312.844 29.750 C 312.742 29.475,312.442 29.125,312.175 28.973 C 311.165 28.395,311.211 26.939,312.269 25.982 C 312.534 25.742,312.875 25.316,313.028 25.034 C 313.621 23.939,317.223 23.315,318.212 24.135 C 318.671 24.516,319.080 27.408,318.858 28.711 C 318.508 30.774,318.569 31.167,319.238 31.167 C 320.408 31.167,320.780 30.375,320.919 27.590 C 321.045 25.082,320.999 24.831,320.271 24.024 C 320.076 23.808,319.747 23.566,319.539 23.485 C 319.331 23.405,319.091 23.156,319.006 22.932 C 318.586 21.828,315.637 21.281,312.833 21.787 M328.533 22.121 C 326.994 23.118,327.765 23.833,330.379 23.833 C 334.783 23.833,335.548 24.536,335.508 28.543 C 335.486 30.818,335.392 31.068,334.471 31.310 C 333.205 31.642,332.683 33.170,333.765 33.377 C 334.295 33.478,335.417 32.689,335.561 32.112 C 335.627 31.851,335.899 31.580,336.287 31.389 C 338.084 30.504,338.160 24.200,336.381 23.591 C 336.217 23.535,335.933 23.251,335.750 22.959 C 334.854 21.535,330.260 21.001,328.533 22.121 M347.846 22.098 C 347.495 22.393,347.333 22.679,347.333 23.003 C 347.333 23.588,346.944 24.000,346.392 24.000 C 345.676 24.000,344.939 24.894,345.057 25.618 C 345.312 27.193,346.902 26.698,347.354 24.903 C 347.571 24.041,347.583 24.037,350.885 23.891 C 353.285 23.785,353.374 23.768,354.044 23.282 L 354.735 22.782 354.090 22.224 L 353.444 21.667 350.902 21.667 C 348.409 21.667,348.349 21.675,347.846 22.098 M364.628 22.125 C 364.388 22.377,364.141 22.865,364.078 23.209 C 363.973 23.777,363.904 23.845,363.329 23.937 C 361.829 24.176,361.220 25.985,362.450 26.545 C 363.003 26.797,364.167 25.619,364.167 24.808 C 364.167 24.117,364.644 23.989,367.626 23.878 L 370.169 23.783 370.773 23.261 L 371.377 22.739 370.766 22.203 L 370.155 21.667 367.609 21.667 L 365.062 21.667 364.628 22.125 M269.639 22.646 C 270.065 22.916,269.410 22.976,265.643 23.008 C 262.036 23.038,260.702 22.918,261.667 22.649 C 262.269 22.482,269.375 22.479,269.639 22.646 M285.417 22.648 C 286.373 22.754,286.331 22.765,284.482 22.890 C 282.333 23.036,278.957 22.843,280.333 22.653 C 281.346 22.514,284.187 22.511,285.417 22.648 M300.809 22.648 C 301.228 22.913,300.746 22.978,298.062 23.016 C 295.477 23.054,294.542 22.931,295.261 22.650 C 295.710 22.474,300.533 22.473,300.809 22.648 M317.541 22.750 C 317.494 22.933,315.237 22.998,313.917 22.854 L 313.083 22.763 313.833 22.654 C 314.972 22.488,317.590 22.556,317.541 22.750 M334.292 22.792 C 334.345 22.952,333.804 23.000,331.944 23.000 C 329.460 23.000,328.779 22.912,329.194 22.644 C 329.557 22.409,334.210 22.545,334.292 22.792 M353.083 22.652 C 353.444 22.734,353.147 22.798,352.016 22.883 C 349.161 23.096,348.046 23.010,348.449 22.607 C 348.588 22.468,352.434 22.506,353.083 22.652 M369.833 22.652 C 370.115 22.733,369.744 22.808,368.683 22.886 C 365.813 23.095,364.713 23.009,365.116 22.607 C 365.259 22.463,369.308 22.502,369.833 22.652 M299.868 24.115 C 301.208 24.438,301.309 24.548,301.917 26.333 C 302.507 28.070,302.483 29.493,301.833 31.311 C 301.558 32.077,301.333 32.731,301.333 32.763 C 301.333 32.929,300.549 33.195,299.424 33.410 C 298.018 33.679,297.466 33.569,296.047 32.738 L 295.333 32.319 295.333 28.685 L 295.333 25.051 296.517 24.442 C 297.855 23.754,298.225 23.718,299.868 24.115 M326.623 24.644 C 326.356 25.096,326.357 25.137,326.643 25.396 C 327.102 25.810,327.644 25.198,327.363 24.583 C 327.119 24.046,326.969 24.058,326.623 24.644 M114.583 24.833 C 111.994 26.123,112.211 31.628,114.895 32.734 C 117.968 34.000,120.558 30.353,119.144 26.752 C 118.390 24.832,116.326 23.964,114.583 24.833 M303.167 25.250 C 303.167 25.387,303.092 25.500,303.000 25.500 C 302.908 25.500,302.833 25.387,302.833 25.250 C 302.833 25.113,302.908 25.000,303.000 25.000 C 303.092 25.000,303.167 25.113,303.167 25.250 M343.533 27.376 C 342.989 28.033,342.424 32.233,342.565 34.569 C 342.776 38.030,343.248 39.612,344.162 39.917 C 344.811 40.133,345.331 40.850,345.332 41.530 C 345.335 42.924,350.284 43.577,352.227 42.439 C 353.227 41.853,354.472 40.120,354.731 38.955 C 354.872 38.318,355.029 38.037,355.324 37.890 C 356.913 37.098,356.787 33.960,355.096 32.208 C 354.631 31.726,354.063 30.939,353.834 30.458 C 353.142 29.007,348.743 28.224,346.452 29.143 C 346.012 29.320,345.935 29.275,344.933 28.248 C 343.783 27.069,343.787 27.071,343.533 27.376 M360.185 27.625 C 358.749 31.122,359.211 39.248,360.884 39.917 C 361.692 40.241,361.944 40.544,362.085 41.357 C 362.289 42.535,363.570 43.000,366.616 43.000 C 368.823 43.000,371.495 40.802,371.499 38.984 C 371.500 38.392,371.788 37.988,372.349 37.791 C 372.997 37.563,373.326 34.379,372.801 33.417 C 372.651 33.142,372.151 32.528,371.691 32.053 C 371.177 31.523,370.773 30.920,370.645 30.494 C 370.395 29.659,370.080 29.433,368.664 29.069 C 367.437 28.753,363.833 28.810,363.188 29.155 C 362.864 29.329,362.718 29.239,361.726 28.257 C 360.472 27.015,360.441 27.003,360.185 27.625 M351.158 29.780 C 351.535 29.881,351.542 29.899,351.241 30.016 C 350.840 30.173,348.629 30.206,348.250 30.060 C 347.442 29.750,350.092 29.495,351.158 29.780 M367.972 29.813 C 368.327 30.037,367.794 30.167,366.528 30.164 C 365.142 30.162,364.436 30.009,364.926 29.817 C 365.371 29.643,367.699 29.639,367.972 29.813 M194.500 30.106 C 193.778 30.196,193.000 30.494,193.000 30.680 C 193.000 30.757,192.700 31.097,192.333 31.437 C 191.468 32.237,191.490 32.406,192.609 33.500 L 193.547 34.417 199.232 34.417 C 204.583 34.417,204.956 34.397,205.583 34.083 C 207.371 33.189,207.083 30.899,205.112 30.335 C 204.425 30.138,195.747 29.951,194.500 30.106 M99.060 30.480 C 98.737 30.780,98.553 31.172,98.229 32.243 C 98.137 32.549,97.719 33.011,97.124 33.463 C 95.516 34.685,95.874 35.333,98.156 35.333 C 100.536 35.333,100.879 34.724,100.301 31.519 C 100.048 30.114,99.735 29.851,99.060 30.480 M203.264 31.014 C 205.387 31.989,205.412 32.600,203.367 33.505 C 202.274 33.988,195.397 34.003,194.497 33.524 C 192.842 32.641,193.457 31.089,195.574 30.808 C 197.116 30.604,202.696 30.753,203.264 31.014 M351.758 31.265 C 352.225 31.487,352.374 31.705,352.673 32.604 C 352.870 33.194,353.205 33.884,353.417 34.137 C 353.632 34.392,353.878 35.002,353.972 35.510 C 354.065 36.013,354.192 36.625,354.253 36.870 C 354.354 37.270,354.308 37.330,353.808 37.460 C 353.205 37.616,352.644 38.398,352.334 39.515 C 351.848 41.268,347.457 41.318,346.501 39.581 C 346.350 39.307,346.019 38.982,345.764 38.859 C 344.452 38.220,344.535 34.761,345.902 33.089 C 346.205 32.719,346.502 32.258,346.564 32.064 C 346.700 31.633,347.136 31.229,347.583 31.120 C 348.441 30.911,351.215 31.007,351.758 31.265 M368.497 31.292 C 368.985 31.538,369.146 31.773,369.520 32.792 C 369.764 33.456,370.115 34.131,370.300 34.292 C 370.590 34.544,370.893 35.630,371.054 37.000 C 371.072 37.151,370.867 37.314,370.537 37.411 C 369.976 37.576,369.000 39.128,369.000 39.856 C 369.000 41.136,364.528 41.165,363.544 39.892 C 363.291 39.564,362.981 39.211,362.856 39.106 C 361.656 38.103,361.667 38.126,361.667 36.538 C 361.667 34.787,361.833 34.206,362.659 33.083 C 362.995 32.625,363.357 32.047,363.462 31.798 C 363.803 30.992,367.218 30.649,368.497 31.292 M344.187 32.699 C 344.107 32.910,343.982 33.646,343.910 34.333 C 343.744 35.912,343.540 35.390,343.519 33.333 C 343.499 31.320,343.621 30.929,344.025 31.717 C 344.244 32.143,344.290 32.425,344.187 32.699 M360.832 31.746 C 361.000 32.189,360.718 34.790,360.471 35.075 C 360.395 35.162,360.333 34.406,360.333 33.394 C 360.333 31.335,360.485 30.834,360.832 31.746 M47.884 32.105 C 45.667 34.394,45.242 36.946,46.819 38.511 C 47.056 38.745,47.446 39.195,47.685 39.511 C 48.611 40.730,51.437 40.203,52.012 38.705 C 52.700 36.910,52.580 32.759,51.821 32.072 C 51.186 31.497,48.451 31.520,47.884 32.105 M131.718 32.105 C 129.500 34.394,129.076 36.946,130.653 38.511 C 130.890 38.745,131.279 39.195,131.518 39.511 C 132.444 40.730,135.270 40.203,135.845 38.705 C 136.533 36.910,136.414 32.759,135.654 32.072 C 135.019 31.497,132.284 31.520,131.718 32.105 M269.653 32.273 C 269.832 32.429,269.326 32.463,265.723 32.540 C 261.967 32.619,261.337 32.566,261.570 32.189 C 261.673 32.021,269.456 32.102,269.653 32.273 M282.930 32.167 C 283.427 32.167,283.833 32.242,283.833 32.333 C 283.833 32.544,281.388 32.557,281.259 32.348 C 281.144 32.162,281.499 32.000,281.805 32.097 C 281.927 32.135,282.434 32.167,282.930 32.167 M317.417 32.333 C 317.360 32.425,316.723 32.500,316.000 32.500 C 315.277 32.500,314.640 32.425,314.583 32.333 C 314.518 32.227,315.029 32.167,316.000 32.167 C 316.971 32.167,317.482 32.227,317.417 32.333 M319.333 33.621 C 318.544 33.922,319.093 36.667,319.943 36.667 C 320.570 36.667,320.881 37.004,320.571 37.347 C 320.412 37.523,320.189 37.667,320.077 37.667 C 319.786 37.667,319.397 38.316,319.122 39.261 C 318.672 40.802,316.982 41.215,313.725 40.578 C 311.973 40.235,311.737 40.130,311.614 39.630 C 311.562 39.421,311.375 38.762,311.199 38.167 L 310.879 37.083 311.281 36.168 C 311.503 35.665,311.822 35.103,311.991 34.918 C 312.902 33.923,310.606 33.273,309.629 34.250 C 308.318 35.560,309.018 40.279,310.566 40.569 C 311.153 40.679,311.333 40.916,311.333 41.580 C 311.333 41.813,311.567 42.170,311.922 42.483 L 312.512 43.000 314.887 43.000 C 318.419 43.000,319.901 42.560,320.286 41.398 C 320.411 41.020,320.762 40.420,321.067 40.064 C 322.453 38.445,322.936 36.333,321.920 36.333 C 321.579 36.333,321.167 35.668,321.167 35.118 C 321.167 34.624,321.071 34.491,320.269 33.871 C 319.762 33.480,319.729 33.471,319.333 33.621 M330.807 34.160 C 329.876 34.932,330.149 35.659,331.372 35.664 C 332.304 35.668,333.141 34.885,332.910 34.225 C 332.657 33.502,331.639 33.471,330.807 34.160 M299.042 34.499 C 300.124 34.499,300.833 34.566,300.833 34.667 C 300.833 34.763,300.251 34.842,299.458 34.853 C 298.702 34.864,297.596 34.922,297.000 34.982 C 295.941 35.089,295.000 34.938,295.000 34.663 C 295.000 34.437,295.528 34.349,296.417 34.425 C 296.875 34.465,298.056 34.498,299.042 34.499 M286.417 34.806 C 286.417 35.107,286.090 35.052,286.026 34.740 C 285.990 34.566,286.052 34.490,286.192 34.536 C 286.316 34.577,286.417 34.699,286.417 34.806 M328.677 36.573 C 328.121 37.146,328.115 37.167,328.413 37.496 C 329.069 38.220,330.069 37.671,329.970 36.641 C 329.894 35.851,329.401 35.825,328.677 36.573 M326.716 38.542 C 326.168 39.144,326.042 39.508,325.917 40.846 L 325.800 42.109 326.337 42.561 L 326.875 43.014 331.896 42.965 L 336.917 42.917 337.750 42.488 C 338.796 41.950,338.790 41.855,337.678 41.292 L 336.774 40.833 333.042 40.833 C 330.606 40.833,329.185 40.768,328.947 40.646 C 328.283 40.304,327.840 39.787,327.736 39.234 C 327.573 38.366,327.143 38.074,326.716 38.542 M332.305 41.667 C 338.421 41.781,338.164 42.069,331.895 42.128 C 326.790 42.175,326.677 42.158,326.796 41.345 L 326.869 40.850 327.365 41.216 C 327.839 41.567,328.054 41.587,332.305 41.667 M269.667 41.776 C 270.681 42.008,269.251 42.143,265.833 42.138 C 262.109 42.133,261.166 42.041,261.710 41.734 C 262.013 41.562,268.891 41.599,269.667 41.776 M284.139 41.813 C 284.526 42.058,283.716 42.162,281.389 42.164 C 279.175 42.167,278.592 42.089,278.761 41.816 C 278.878 41.626,283.841 41.624,284.139 41.813 M317.584 41.773 C 318.234 42.023,317.305 42.162,314.968 42.164 C 312.740 42.166,312.148 42.075,312.449 41.773 C 312.588 41.634,317.222 41.634,317.584 41.773 M351.043 41.917 C 351.093 42.124,349.502 42.227,348.514 42.080 C 347.982 42.001,347.843 41.929,348.014 41.818 C 348.326 41.616,350.990 41.702,351.043 41.917 M367.906 41.816 C 368.113 42.151,366.233 42.305,364.987 42.056 C 364.517 41.962,364.482 41.925,364.758 41.817 C 365.218 41.637,367.795 41.636,367.906 41.816 " stroke="none" fill="#ebf4f4" fill-rule="evenodd"></path><path id="path2" d="M28.917 21.232 C 26.799 21.796,26.617 22.020,26.474 24.225 C 26.414 25.156,26.309 26.770,26.240 27.814 C 26.027 31.028,26.895 31.659,31.536 31.665 C 32.404 31.667,33.667 32.063,33.667 32.334 C 33.667 32.393,34.079 32.870,34.583 33.394 C 35.930 34.796,35.890 36.899,34.487 38.386 C 34.126 38.770,33.791 39.207,33.742 39.359 C 33.332 40.645,29.448 40.434,27.969 39.045 C 26.816 37.962,25.085 40.725,25.913 42.327 C 26.624 43.702,33.089 44.245,34.509 43.050 L 35.000 42.637 34.640 42.345 C 34.142 41.942,34.384 41.604,35.090 41.719 C 35.832 41.839,36.667 40.805,36.667 39.766 C 36.667 38.950,37.010 38.476,37.519 38.587 C 38.350 38.770,38.583 38.131,38.583 35.674 C 38.583 33.145,38.369 32.418,37.664 32.559 C 37.100 32.672,36.833 32.412,36.833 31.749 C 36.833 31.464,36.655 30.990,36.438 30.696 C 36.221 30.401,35.919 29.835,35.767 29.439 C 35.616 29.043,35.325 28.633,35.121 28.527 C 34.691 28.305,30.759 28.188,30.226 28.382 C 29.267 28.730,28.693 25.553,29.542 24.595 C 29.883 24.210,29.977 24.186,30.583 24.332 C 31.356 24.517,33.498 24.547,34.972 24.393 C 36.158 24.269,36.671 23.797,36.324 23.150 C 36.186 22.891,36.191 22.677,36.345 22.306 C 36.528 21.864,36.510 21.770,36.188 21.447 C 35.733 20.992,30.412 20.834,28.917 21.232 M48.239 21.303 C 46.185 22.013,43.233 25.675,42.721 28.146 C 42.581 28.822,42.246 30.012,41.977 30.790 C 41.161 33.143,41.025 34.625,41.550 35.429 C 41.979 36.086,42.381 37.413,42.588 38.858 C 42.733 39.867,43.166 40.557,43.977 41.069 C 44.337 41.296,44.808 41.799,45.024 42.185 C 45.670 43.344,46.192 43.511,49.148 43.510 C 52.243 43.509,52.481 43.420,52.837 42.137 C 53.004 41.533,53.827 40.667,54.234 40.667 C 55.061 40.667,55.452 39.309,55.603 35.917 C 55.764 32.285,55.452 31.179,54.167 30.833 C 53.406 30.629,52.929 30.121,52.897 29.484 C 52.840 28.365,51.988 28.100,48.937 28.249 C 46.786 28.355,46.742 28.350,46.254 27.948 L 45.758 27.538 46.125 26.727 C 46.327 26.282,46.512 25.692,46.537 25.417 C 46.579 24.969,46.636 24.922,47.085 24.967 C 47.360 24.994,47.864 24.900,48.204 24.758 C 48.544 24.616,49.219 24.500,49.703 24.499 C 51.996 24.496,53.291 24.298,53.740 23.882 L 54.176 23.478 53.796 23.164 C 53.423 22.856,53.422 22.842,53.713 22.320 C 54.347 21.186,50.593 20.489,48.239 21.303 M60.097 21.331 C 59.647 21.509,59.033 21.902,58.733 22.203 L 58.187 22.750 58.864 23.375 C 59.864 24.297,60.753 24.500,63.822 24.503 C 66.152 24.505,68.131 24.742,68.444 25.056 C 68.497 25.108,68.281 25.398,67.963 25.701 C 67.384 26.252,67.081 26.916,66.583 28.726 C 66.392 29.418,66.107 29.927,65.603 30.476 C 64.745 31.410,64.587 31.798,64.249 33.797 C 63.940 35.625,63.824 35.961,63.171 36.910 C 62.228 38.281,61.483 41.494,61.914 42.329 C 62.358 43.186,63.285 43.543,64.110 43.174 C 64.976 42.786,64.994 42.725,65.181 39.667 C 65.371 36.563,65.502 36.132,66.232 36.201 C 66.934 36.267,67.241 35.617,67.583 33.333 C 67.835 31.651,68.145 30.333,68.287 30.333 C 68.325 30.333,68.489 30.405,68.651 30.492 C 69.063 30.712,69.584 29.754,69.835 28.312 C 70.038 27.147,70.532 26.135,70.877 26.180 C 71.741 26.291,72.163 25.294,72.143 23.186 C 72.122 20.964,72.486 21.092,66.091 21.045 C 61.303 21.009,60.856 21.031,60.097 21.331 M113.273 21.244 C 112.575 21.493,111.667 22.265,111.667 22.610 C 111.667 22.728,111.451 22.937,111.187 23.073 C 110.424 23.468,109.870 24.259,109.509 25.469 C 109.325 26.087,109.063 26.740,108.926 26.921 C 108.320 27.723,108.806 31.834,109.675 33.250 C 111.116 35.600,112.600 36.333,115.911 36.333 C 118.278 36.333,118.529 36.362,118.833 36.667 C 119.299 37.132,119.266 37.230,118.405 37.935 C 117.986 38.279,117.498 38.844,117.321 39.191 C 116.873 40.068,116.742 40.107,113.835 40.233 C 109.993 40.399,108.693 41.561,110.691 43.045 C 111.305 43.501,115.100 43.809,116.431 43.511 C 117.421 43.290,117.960 42.685,117.654 42.138 C 117.464 41.799,117.982 41.433,118.893 41.264 C 119.602 41.132,120.333 40.470,120.333 39.959 C 120.333 39.315,120.842 38.522,121.290 38.468 C 122.230 38.355,122.413 37.761,122.452 34.696 C 122.471 33.167,122.536 31.204,122.595 30.333 C 122.803 27.297,122.330 25.382,121.352 25.300 C 120.804 25.255,120.745 25.200,120.697 24.696 C 120.668 24.391,120.424 23.795,120.155 23.372 C 119.887 22.948,119.665 22.485,119.663 22.342 C 119.653 21.672,119.065 21.274,117.892 21.144 C 116.108 20.946,113.980 20.992,113.273 21.244 M132.072 21.303 C 131.373 21.544,130.894 21.937,129.287 23.585 C 127.164 25.762,127.037 25.989,126.367 28.833 C 125.894 30.840,125.745 31.166,125.296 31.172 C 124.120 31.188,124.048 32.829,125.132 34.917 C 125.275 35.192,125.525 35.679,125.688 36.000 C 125.850 36.321,126.128 37.313,126.303 38.205 C 126.666 40.043,126.907 40.498,127.820 41.075 C 128.175 41.299,128.642 41.799,128.858 42.185 C 129.504 43.344,130.025 43.511,132.982 43.510 C 136.076 43.509,136.314 43.420,136.670 42.137 C 136.837 41.533,137.661 40.667,138.067 40.667 C 138.894 40.667,139.286 39.309,139.436 35.917 C 139.598 32.285,139.285 31.179,138.000 30.833 C 137.239 30.629,136.762 30.121,136.730 29.484 C 136.674 28.364,135.804 28.093,132.759 28.245 C 130.621 28.352,130.575 28.347,130.088 27.946 L 129.592 27.538 129.958 26.727 C 130.160 26.282,130.346 25.692,130.371 25.417 C 130.412 24.969,130.469 24.922,130.918 24.967 C 131.194 24.994,131.698 24.900,132.038 24.758 C 132.378 24.616,133.052 24.500,133.536 24.499 C 135.829 24.496,137.124 24.298,137.574 23.882 L 138.009 23.478 137.630 23.164 C 137.256 22.856,137.255 22.842,137.547 22.320 C 138.180 21.186,134.426 20.489,132.072 21.303 M81.917 21.415 C 81.642 21.558,81.192 22.025,80.917 22.453 C 80.463 23.159,80.309 23.263,79.250 23.584 C 76.062 24.548,76.139 25.951,79.414 26.578 C 80.110 26.711,80.902 26.978,81.173 27.171 L 81.667 27.523 81.667 34.816 L 81.667 42.109 82.052 42.471 C 82.539 42.928,84.068 42.998,84.232 42.570 C 84.462 41.970,84.343 21.715,84.108 21.521 C 83.712 21.192,82.463 21.132,81.917 21.415 M101.058 21.425 C 100.714 21.600,100.351 22.033,100.006 22.681 C 99.716 23.224,99.265 23.903,99.004 24.190 C 98.742 24.476,98.291 25.282,98.002 25.980 C 97.632 26.872,97.251 27.466,96.722 27.974 C 96.307 28.373,95.790 29.101,95.572 29.592 C 95.311 30.183,95.012 30.571,94.692 30.737 C 94.073 31.057,93.364 31.896,93.227 32.471 C 93.052 33.198,92.736 33.718,91.990 34.506 C 90.665 35.905,90.351 37.139,91.125 37.914 C 91.844 38.633,92.188 38.695,96.050 38.791 C 100.578 38.905,100.500 38.868,100.500 40.858 C 100.500 42.779,101.211 43.483,102.645 42.982 C 103.370 42.730,103.500 42.403,103.500 40.828 C 103.500 39.259,103.813 38.500,104.458 38.500 C 104.671 38.500,105.033 38.377,105.263 38.226 C 106.186 37.621,105.542 35.667,104.420 35.667 C 103.646 35.667,103.521 34.979,103.410 30.083 C 103.279 24.315,103.282 24.619,103.355 23.213 C 103.444 21.480,102.458 20.713,101.058 21.425 M117.287 24.771 C 120.133 25.794,120.300 31.438,117.520 32.627 C 117.188 32.768,116.209 32.940,115.343 33.009 C 113.471 33.156,113.102 33.000,112.819 31.940 C 112.573 31.021,112.393 30.833,111.756 30.833 C 111.041 30.833,110.833 30.352,110.833 28.696 C 110.833 27.181,111.081 26.665,111.745 26.792 C 112.316 26.901,112.584 26.640,112.839 25.728 C 113.179 24.516,113.418 24.382,115.124 24.456 C 115.927 24.490,116.900 24.632,117.287 24.771 M100.104 30.118 C 100.070 30.153,100.145 30.721,100.271 31.382 C 100.951 34.950,100.613 35.422,97.481 35.277 C 95.803 35.199,95.316 35.228,95.065 35.418 C 94.622 35.753,94.541 35.729,94.260 35.187 C 93.957 34.600,94.384 34.054,95.017 34.219 C 95.545 34.357,96.296 33.545,96.433 32.687 C 96.549 31.958,96.822 31.631,97.383 31.545 C 97.932 31.462,98.277 31.049,98.508 30.200 C 98.625 29.769,98.875 29.141,99.065 28.805 L 99.409 28.193 99.788 29.125 C 99.996 29.637,100.138 30.084,100.104 30.118 M195.574 30.808 C 193.457 31.089,192.842 32.641,194.497 33.524 C 195.363 33.985,202.598 33.994,203.165 33.535 C 203.755 33.057,203.817 31.860,203.283 31.239 L 202.862 30.750 199.639 30.723 C 197.867 30.709,196.037 30.747,195.574 30.808 M51.811 32.063 C 52.580 32.759,52.705 36.896,52.012 38.703 C 51.563 39.875,51.268 39.993,48.517 40.100 C 46.267 40.188,46.087 40.096,45.915 38.778 C 45.853 38.304,45.697 37.699,45.568 37.433 C 45.439 37.167,45.333 36.741,45.333 36.488 C 45.333 35.605,45.175 35.434,44.737 35.845 L 44.350 36.209 44.248 35.729 C 44.192 35.466,44.123 35.129,44.095 34.982 C 43.996 34.469,44.309 34.170,44.835 34.275 C 45.391 34.386,45.664 33.950,45.669 32.947 C 45.672 32.346,45.769 32.165,46.269 31.824 C 46.810 31.454,51.354 31.650,51.811 32.063 M135.644 32.063 C 136.413 32.759,136.539 36.896,135.845 38.703 C 135.396 39.875,135.101 39.993,132.350 40.100 C 130.100 40.188,129.921 40.096,129.748 38.778 C 129.686 38.304,129.530 37.699,129.401 37.433 C 129.272 37.167,129.167 36.741,129.167 36.488 C 129.167 35.605,129.008 35.434,128.571 35.845 L 128.184 36.209 128.082 35.729 C 128.026 35.466,127.957 35.129,127.928 34.982 C 127.830 34.469,128.142 34.170,128.668 34.275 C 129.224 34.386,129.498 33.950,129.503 32.947 C 129.505 32.346,129.602 32.165,130.102 31.824 C 130.644 31.454,135.188 31.650,135.644 32.063 M118.743 34.655 C 118.866 34.855,118.553 35.052,118.331 34.915 C 118.144 34.800,118.267 34.500,118.500 34.500 C 118.581 34.500,118.690 34.570,118.743 34.655 " stroke="none" fill="#a78296" fill-rule="evenodd"></path><path id="path3" d="M257.417 4.850 C 255.455 5.055,254.577 5.302,253.000 6.092 C 252.221 6.483,251.126 6.952,250.567 7.134 C 249.339 7.534,248.636 7.886,248.333 8.250 C 248.209 8.400,247.577 8.865,246.929 9.284 C 245.482 10.220,242.872 12.803,241.750 14.409 C 241.292 15.065,240.678 15.920,240.387 16.310 C 240.095 16.699,239.695 17.520,239.497 18.134 C 239.299 18.748,238.765 20.006,238.310 20.929 C 236.452 24.701,236.506 33.213,238.409 36.714 C 238.719 37.284,239.174 38.350,239.420 39.083 C 239.666 39.817,240.071 40.679,240.320 41.000 C 240.570 41.321,241.159 42.156,241.630 42.857 C 242.731 44.495,245.379 47.132,247.083 48.286 C 247.817 48.783,248.673 49.372,248.985 49.596 C 249.298 49.820,250.011 50.146,250.569 50.321 C 251.127 50.495,252.371 51.012,253.333 51.470 C 256.254 52.858,251.035 52.750,315.167 52.750 C 379.922 52.750,373.778 52.889,376.911 51.348 C 377.831 50.896,379.008 50.404,379.528 50.255 C 380.047 50.106,380.759 49.764,381.111 49.495 C 381.462 49.226,382.313 48.632,383.000 48.175 C 384.580 47.126,387.402 44.278,388.389 42.738 C 388.805 42.090,389.267 41.458,389.417 41.333 C 389.781 41.031,390.144 40.305,390.448 39.270 C 390.586 38.801,391.077 37.647,391.540 36.707 C 393.391 32.941,393.418 24.394,391.589 20.827 C 391.167 20.003,390.675 18.855,390.496 18.275 C 390.317 17.695,389.989 16.965,389.768 16.652 C 389.546 16.339,388.942 15.466,388.424 14.711 C 387.249 12.999,384.648 10.397,383.000 9.284 C 382.313 8.820,381.488 8.235,381.167 7.983 C 380.846 7.731,379.996 7.335,379.277 7.103 C 378.559 6.871,377.493 6.419,376.908 6.097 C 375.534 5.342,374.482 5.051,372.357 4.839 C 370.250 4.629,259.436 4.639,257.417 4.850 M371.634 5.825 C 372.461 5.945,372.794 6.085,373.202 6.484 C 373.914 7.180,375.254 7.573,379.191 8.239 C 379.643 8.316,379.824 8.441,379.896 8.728 C 380.017 9.207,380.790 10.000,381.137 10.000 C 381.529 10.000,382.833 10.672,382.833 10.874 C 382.833 11.162,383.664 12.167,383.903 12.167 C 384.277 12.167,384.994 12.835,385.333 13.499 C 385.511 13.848,385.940 14.306,386.286 14.518 C 387.076 15.000,387.261 15.242,387.507 16.113 C 387.734 16.919,388.191 17.468,388.814 17.685 C 389.218 17.826,389.275 17.970,389.549 19.544 C 389.985 22.041,390.575 23.843,391.152 24.433 C 391.993 25.294,392.289 32.667,391.482 32.667 C 391.033 32.667,390.080 34.824,389.828 36.413 C 389.348 39.441,389.329 39.495,388.626 39.854 C 388.131 40.106,387.893 40.378,387.648 40.969 C 387.092 42.311,386.918 42.577,386.454 42.800 C 386.206 42.919,385.871 43.205,385.710 43.435 C 385.029 44.408,384.574 44.888,383.973 45.267 C 383.623 45.488,383.151 45.961,382.926 46.319 C 382.614 46.813,382.323 47.032,381.709 47.236 C 380.636 47.592,380.208 47.913,379.937 48.562 C 379.693 49.145,379.804 49.109,376.231 49.751 C 374.836 50.002,373.589 50.520,372.983 51.100 C 372.226 51.825,372.034 51.827,314.917 51.829 C 258.717 51.831,257.516 51.817,257.000 51.182 C 256.378 50.417,255.338 50.042,252.301 49.485 C 250.456 49.147,250.174 49.052,250.097 48.746 C 249.952 48.169,249.423 47.683,248.648 47.416 C 247.494 47.019,247.203 46.823,246.986 46.299 C 246.869 46.017,246.392 45.549,245.862 45.196 C 245.313 44.830,244.793 44.315,244.573 43.917 C 244.371 43.550,243.952 43.103,243.644 42.923 C 242.907 42.494,242.706 42.226,242.481 41.375 C 242.296 40.675,241.391 39.667,240.948 39.667 C 240.815 39.667,240.558 38.758,240.225 37.111 C 239.678 34.405,239.389 33.602,238.723 32.936 C 237.671 31.884,237.730 25.648,238.803 24.426 C 239.408 23.736,239.869 22.351,240.337 19.816 C 240.689 17.906,240.701 17.879,241.265 17.610 C 241.873 17.320,242.496 16.468,242.503 15.917 C 242.509 15.456,242.976 14.894,243.654 14.530 C 243.968 14.362,244.355 13.980,244.515 13.682 C 244.919 12.930,245.296 12.542,246.027 12.132 C 246.372 11.937,246.773 11.530,246.917 11.225 C 247.204 10.621,247.527 10.395,248.663 10.006 C 249.326 9.778,249.979 9.135,250.197 8.495 C 250.250 8.341,250.822 8.209,253.438 7.745 C 255.021 7.465,256.237 6.983,256.859 6.390 C 257.159 6.104,257.591 5.925,258.193 5.838 C 259.472 5.652,370.349 5.639,371.634 5.825 M259.182 20.884 C 257.854 21.350,257.922 20.767,257.873 32.137 C 257.817 45.286,257.055 43.892,264.333 43.968 C 271.970 44.049,273.667 43.604,273.667 41.520 C 273.667 40.264,274.248 40.429,274.657 41.802 C 275.258 43.820,275.718 43.973,281.218 43.991 C 285.808 44.006,287.229 43.636,287.853 42.265 C 288.226 41.444,288.598 40.990,289.205 40.613 C 290.781 39.634,290.673 35.588,289.051 34.849 C 288.811 34.740,288.619 34.472,288.557 34.158 C 288.411 33.431,287.625 32.711,286.798 32.547 C 286.186 32.426,286.085 32.340,285.954 31.830 C 285.663 30.698,284.987 30.349,282.758 30.183 L 281.425 30.083 281.170 29.392 C 280.837 28.488,280.430 28.056,279.688 27.819 C 278.777 27.529,278.748 27.418,279.424 26.810 C 279.766 26.502,280.150 26.004,280.277 25.702 C 280.576 24.998,281.042 24.833,282.719 24.836 C 284.265 24.839,284.394 24.891,284.816 25.680 C 285.499 26.957,286.894 27.049,288.116 25.897 C 288.612 25.429,288.686 25.268,288.588 24.879 C 288.524 24.625,288.367 23.817,288.239 23.083 C 287.829 20.725,287.541 20.617,281.917 20.697 C 277.712 20.758,277.467 20.820,276.878 21.987 C 276.599 22.542,276.357 22.775,275.904 22.931 C 274.191 23.520,273.786 25.285,274.518 28.967 C 274.948 31.130,275.097 31.368,276.298 31.810 C 277.074 32.095,277.320 32.283,277.629 32.827 C 278.179 33.798,278.556 33.956,281.446 34.425 C 281.851 34.490,282.073 34.678,282.397 35.232 C 282.642 35.650,283.030 36.041,283.319 36.161 C 284.166 36.511,284.337 36.954,284.202 38.443 L 284.083 39.750 281.428 39.750 L 278.772 39.750 278.344 38.919 C 277.415 37.112,274.589 37.353,273.260 39.352 C 272.860 39.952,272.027 40.306,271.614 40.051 C 271.513 39.988,269.777 39.894,267.756 39.841 C 263.248 39.724,263.667 40.006,263.667 37.090 L 263.667 34.699 264.192 34.516 C 264.485 34.414,265.861 34.333,267.317 34.332 C 271.387 34.331,272.571 33.561,271.654 31.514 C 271.172 30.438,270.667 30.293,266.917 30.159 C 265.175 30.097,263.731 30.036,263.708 30.023 C 263.538 29.929,263.697 25.166,263.875 25.052 C 263.990 24.977,265.583 24.871,267.417 24.815 C 270.534 24.721,270.822 24.685,271.860 24.262 C 274.074 23.360,273.622 21.711,270.943 20.915 C 269.858 20.593,260.087 20.567,259.182 20.884 M292.750 20.862 C 291.314 21.383,291.333 21.226,291.333 32.369 C 291.333 41.942,291.375 42.721,291.914 43.303 C 292.792 44.249,295.398 43.921,296.708 42.698 L 297.167 42.271 297.167 39.643 L 297.167 37.015 297.708 36.933 C 298.006 36.887,298.972 36.815,299.855 36.773 C 301.844 36.677,302.402 36.422,302.835 35.412 C 303.070 34.863,303.269 34.649,303.617 34.567 C 304.343 34.395,304.820 33.847,305.108 32.855 C 305.276 32.279,305.546 31.800,305.845 31.548 C 307.259 30.358,307.259 27.142,305.845 25.952 C 305.458 25.626,305.285 25.272,305.083 24.390 C 304.700 22.717,304.068 21.806,302.886 21.226 L 301.917 20.750 297.583 20.715 C 294.788 20.693,293.073 20.745,292.750 20.862 M311.623 20.905 C 310.789 21.203,310.552 21.419,310.332 22.088 C 310.204 22.476,309.958 22.742,309.536 22.949 C 308.472 23.474,308.262 24.074,308.191 26.794 C 308.094 30.534,308.368 31.374,309.823 31.811 C 310.476 32.006,310.745 32.441,310.292 32.570 C 310.177 32.602,309.760 32.716,309.365 32.824 C 308.537 33.049,308.056 33.469,307.896 34.106 C 307.834 34.352,307.537 34.770,307.236 35.035 C 305.947 36.166,305.918 37.892,307.169 39.106 C 307.522 39.448,307.883 40.012,307.996 40.398 C 308.318 41.492,310.565 43.581,311.674 43.819 C 312.809 44.063,317.464 44.037,318.933 43.779 C 320.450 43.513,320.856 43.233,321.511 42.004 C 322.114 40.873,322.458 40.744,323.048 41.428 C 325.319 44.059,325.270 44.046,332.417 43.971 C 337.616 43.917,337.772 43.905,338.629 43.519 C 340.211 42.805,340.686 41.895,339.875 41.129 C 338.670 39.992,338.341 39.925,333.500 39.833 C 329.251 39.753,329.083 39.738,329.083 39.423 C 329.083 39.197,329.251 39.048,329.627 38.940 C 330.331 38.738,330.956 38.153,331.104 37.556 C 331.250 36.972,331.571 36.725,332.344 36.601 C 333.099 36.480,333.536 36.095,333.863 35.262 C 334.083 34.701,334.229 34.576,334.883 34.385 C 335.700 34.147,336.299 33.548,336.444 32.824 C 336.505 32.518,336.698 32.329,337.094 32.186 C 338.390 31.717,338.980 29.204,338.579 25.862 C 338.342 23.892,338.059 23.293,337.204 22.951 C 336.678 22.741,336.524 22.570,336.357 22.014 C 336.005 20.838,335.668 20.750,331.500 20.750 C 325.903 20.751,325.179 21.185,325.109 24.580 C 325.055 27.256,328.156 28.063,328.774 25.534 C 328.929 24.902,329.087 24.838,330.500 24.838 C 332.291 24.838,332.435 24.901,332.656 25.775 C 332.776 26.254,333.046 26.706,333.414 27.043 C 333.756 27.357,333.930 27.637,333.848 27.742 C 333.773 27.838,333.547 28.367,333.347 28.917 C 333.147 29.467,332.887 29.992,332.771 30.083 C 332.410 30.366,331.961 31.150,331.851 31.689 C 331.755 32.160,331.634 32.240,330.380 32.661 C 328.683 33.230,328.255 33.507,327.853 34.294 C 327.489 35.007,327.077 35.412,326.549 35.573 C 325.947 35.756,325.429 36.530,324.998 37.888 C 324.494 39.478,324.421 39.477,324.087 37.875 C 323.735 36.190,323.301 35.265,322.695 34.907 C 322.388 34.726,322.122 34.371,321.988 33.963 C 321.724 33.164,321.202 32.730,320.328 32.583 C 319.475 32.438,319.493 32.278,320.401 31.931 C 322.878 30.985,322.676 23.149,320.167 22.807 C 319.870 22.766,319.733 22.631,319.692 22.336 C 319.597 21.663,319.065 21.072,318.365 20.863 C 317.436 20.584,312.435 20.615,311.623 20.905 M347.272 20.872 C 346.777 21.003,346.146 21.519,344.561 23.089 C 342.263 25.365,341.993 25.816,341.669 27.917 C 341.536 28.779,341.250 29.691,340.859 30.500 C 339.983 32.308,339.961 34.652,340.802 36.376 C 341.104 36.995,341.431 37.933,341.528 38.459 C 341.905 40.497,342.445 41.333,343.383 41.333 C 343.663 41.333,344.167 41.860,344.167 42.155 C 344.167 42.271,344.284 42.614,344.428 42.918 C 345.347 44.854,354.667 44.085,354.667 42.073 C 354.667 41.963,354.778 41.782,354.914 41.669 C 355.050 41.556,355.292 41.050,355.451 40.544 C 355.687 39.796,355.865 39.545,356.405 39.205 C 357.211 38.696,357.620 38.245,357.875 37.583 C 358.058 37.109,358.084 37.165,358.364 38.664 C 358.706 40.492,359.010 40.987,360.000 41.333 C 360.638 41.556,360.740 41.666,360.938 42.346 C 361.344 43.742,362.026 43.998,365.344 43.999 C 369.905 44.001,371.445 43.185,372.285 40.320 C 372.449 39.759,372.656 39.422,372.904 39.309 C 374.716 38.483,374.863 32.648,373.107 31.249 C 372.208 30.532,371.990 30.276,371.673 29.558 C 371.112 28.290,369.796 27.850,366.500 27.827 C 365.446 27.820,364.283 27.758,363.917 27.690 L 363.250 27.566 363.750 27.300 C 364.461 26.922,364.775 26.520,364.991 25.708 C 365.095 25.319,365.233 24.996,365.298 24.992 C 365.363 24.987,366.617 24.923,368.083 24.851 C 371.569 24.678,372.270 24.310,372.227 22.678 C 372.183 20.996,371.590 20.750,367.583 20.750 C 363.567 20.750,363.832 20.654,361.466 22.966 C 359.027 25.350,358.791 25.743,358.436 28.000 C 358.125 29.975,357.897 30.299,356.558 30.674 C 355.674 30.921,355.525 30.822,354.947 29.602 C 354.298 28.230,353.136 27.845,349.583 27.825 C 348.575 27.819,347.450 27.757,347.083 27.687 L 346.417 27.560 347.047 27.286 C 347.676 27.013,348.321 26.010,348.330 25.292 C 348.332 25.131,348.427 24.997,348.542 24.992 C 354.782 24.763,355.405 24.558,355.405 22.739 C 355.405 21.683,355.017 21.158,354.016 20.858 C 353.228 20.622,348.177 20.632,347.272 20.872 M36.281 21.558 C 36.430 21.755,36.779 22.067,37.056 22.250 C 37.708 22.681,37.691 22.827,36.928 23.346 C 35.996 23.979,35.829 24.355,36.535 24.233 C 39.068 23.796,39.200 21.620,36.713 21.292 C 36.015 21.200,36.012 21.203,36.281 21.558 M53.978 21.875 C 54.355 22.265,54.664 22.658,54.664 22.750 C 54.664 22.842,54.355 23.235,53.978 23.625 C 53.252 24.374,53.396 24.568,54.322 24.089 C 55.609 23.424,55.833 22.573,54.932 21.774 C 53.944 20.898,53.116 20.985,53.978 21.875 M137.811 21.875 C 138.189 22.265,138.498 22.658,138.498 22.750 C 138.498 22.842,138.189 23.235,137.811 23.625 C 137.086 24.374,137.229 24.568,138.155 24.089 C 139.443 23.424,139.667 22.573,138.766 21.774 C 137.777 20.898,136.949 20.985,137.811 21.875 M72.077 21.764 C 72.200 22.002,72.458 22.306,72.650 22.440 L 72.999 22.685 72.583 23.298 C 72.354 23.635,72.167 24.079,72.167 24.285 C 72.167 25.208,70.995 26.874,70.463 26.708 C 70.257 26.643,70.036 27.217,69.834 28.338 C 69.727 28.931,69.430 29.792,69.173 30.250 C 68.916 30.708,68.619 31.357,68.513 31.691 C 68.404 32.032,68.184 32.333,68.011 32.379 C 67.780 32.439,67.675 32.682,67.591 33.355 C 67.429 34.634,67.045 35.922,66.752 36.165 C 66.613 36.280,66.500 36.522,66.500 36.704 C 66.500 37.319,65.974 38.199,65.656 38.116 C 65.276 38.016,65.174 38.404,65.162 40.000 C 65.156 40.688,65.090 41.569,65.015 41.958 C 64.859 42.764,64.863 42.767,65.509 42.385 C 66.307 41.914,66.851 40.041,67.603 35.186 C 67.663 34.800,67.905 34.430,68.368 34.019 C 69.214 33.266,69.466 32.677,69.749 30.784 C 69.962 29.357,70.007 29.251,70.648 28.665 C 71.247 28.118,72.500 25.859,72.500 25.327 C 72.500 25.232,72.836 24.804,73.246 24.376 C 74.537 23.029,74.480 22.156,73.061 21.563 C 72.137 21.177,71.807 21.245,72.077 21.764 M119.356 21.750 C 119.497 22.025,119.781 22.599,119.988 23.025 C 120.194 23.452,120.656 24.037,121.016 24.326 C 122.468 25.493,122.719 26.847,122.577 32.750 C 122.473 37.093,122.381 37.754,121.810 38.271 C 121.621 38.442,121.359 38.789,121.229 39.041 C 121.091 39.307,120.853 39.500,120.662 39.500 C 120.433 39.500,120.332 39.614,120.330 39.875 C 120.324 40.403,119.856 40.928,119.125 41.227 C 118.781 41.368,118.500 41.597,118.500 41.736 C 118.500 41.875,118.351 42.068,118.168 42.166 C 117.986 42.263,117.724 42.561,117.586 42.828 L 117.336 43.312 117.960 43.223 C 118.789 43.104,119.326 42.702,119.839 41.816 C 120.088 41.387,120.503 40.964,120.840 40.796 C 121.813 40.310,122.101 39.819,122.572 37.848 C 122.814 36.837,123.291 35.426,123.631 34.713 C 124.658 32.562,124.454 28.331,123.261 27.012 C 123.124 26.861,122.905 26.275,122.773 25.709 C 122.500 24.539,122.020 23.775,121.270 23.319 C 120.985 23.146,120.564 22.730,120.335 22.395 C 120.105 22.060,119.733 21.665,119.508 21.518 L 119.100 21.250 119.356 21.750 M84.294 21.922 C 84.338 22.154,84.518 22.421,84.694 22.515 C 85.115 22.740,85.090 24.917,84.667 24.917 C 84.380 24.917,84.363 25.450,84.292 36.284 L 84.250 42.818 84.632 42.992 C 84.925 43.126,85.110 43.102,85.432 42.891 C 86.348 42.291,86.333 42.469,86.333 32.158 L 86.333 22.633 85.767 22.067 C 85.037 21.337,84.165 21.251,84.294 21.922 M103.317 22.110 C 103.393 22.375,103.465 25.303,103.478 28.616 C 103.503 35.395,103.455 35.032,104.390 35.495 C 104.771 35.684,105.415 36.127,105.821 36.479 L 106.559 37.119 105.988 37.642 C 105.674 37.930,105.022 38.362,104.540 38.603 C 103.545 39.100,103.532 39.130,103.464 41.197 C 103.418 42.589,103.431 42.647,103.797 42.717 C 104.622 42.874,105.000 42.284,105.000 40.836 C 105.000 39.378,105.047 39.306,106.685 38.279 C 108.091 37.396,108.076 36.811,106.621 35.884 C 106.234 35.638,105.710 35.249,105.458 35.020 L 105.000 34.604 105.000 28.581 L 105.000 22.558 104.617 22.198 C 103.948 21.570,103.146 21.515,103.317 22.110 M270.255 21.930 C 270.601 22.074,271.063 22.309,271.281 22.452 L 271.677 22.712 271.130 23.079 C 270.166 23.726,269.553 23.833,266.831 23.833 L 264.211 23.833 263.018 24.430 L 261.825 25.027 261.871 27.550 L 261.917 30.073 262.904 30.578 C 263.862 31.069,263.974 31.086,266.737 31.167 C 268.706 31.224,269.712 31.321,270.000 31.480 C 272.004 32.585,270.891 33.333,267.241 33.333 C 264.525 33.333,263.664 33.507,262.458 34.300 L 261.833 34.711 261.833 37.149 C 261.833 39.509,261.845 39.594,262.208 39.783 C 264.055 40.747,263.926 40.720,267.250 40.833 C 271.255 40.969,272.940 41.487,271.802 42.231 C 270.187 43.287,260.661 43.334,259.542 42.291 L 259.167 41.942 259.167 32.333 L 259.167 22.725 259.542 22.378 C 260.319 21.658,268.759 21.305,270.255 21.930 M286.740 22.156 C 287.788 23.250,286.902 24.283,285.155 24.001 C 281.933 23.481,279.330 24.033,278.564 25.398 C 277.597 27.122,277.637 27.978,278.711 28.517 C 279.668 28.997,280.121 29.441,280.345 30.118 C 280.570 30.801,280.931 30.963,282.552 31.104 C 283.960 31.227,284.772 31.646,285.093 32.414 C 285.352 33.034,285.592 33.250,286.178 33.389 C 286.798 33.537,287.785 34.565,287.920 35.202 C 287.983 35.503,288.231 35.958,288.469 36.213 C 289.235 37.028,288.946 38.439,287.722 39.853 C 287.131 40.536,286.896 40.959,286.610 41.859 C 286.264 42.950,279.610 43.414,277.417 42.500 L 276.417 42.083 276.100 40.780 L 275.782 39.477 276.127 39.132 C 276.565 38.694,276.880 38.816,277.387 39.619 C 278.090 40.734,278.122 40.744,280.997 40.806 C 285.008 40.891,285.309 40.741,285.686 38.457 L 285.899 37.164 285.248 35.790 C 284.356 33.908,284.311 33.871,282.586 33.570 C 281.004 33.294,280.329 32.942,279.842 32.142 C 279.646 31.819,279.061 31.424,278.045 30.930 C 276.313 30.087,276.388 30.171,275.981 28.606 C 275.365 26.235,275.734 24.167,276.773 24.167 C 277.330 24.167,277.843 23.749,277.999 23.170 C 278.367 21.802,278.647 21.720,283.010 21.689 L 286.271 21.667 286.740 22.156 M301.582 22.017 C 302.988 22.678,304.044 24.106,304.350 25.763 C 304.450 26.302,304.637 26.947,304.766 27.197 C 305.037 27.721,305.085 29.848,304.831 30.102 C 304.738 30.195,304.556 30.777,304.427 31.395 C 304.176 32.596,303.581 33.561,302.900 33.871 C 302.681 33.971,302.356 34.299,302.178 34.601 C 301.671 35.461,300.761 35.832,299.132 35.843 C 297.733 35.852,297.021 36.049,295.874 36.744 L 295.333 37.072 295.333 39.520 L 295.333 41.969 294.554 42.234 C 292.538 42.921,292.667 43.598,292.667 32.337 L 292.667 22.725 293.042 22.373 C 293.862 21.603,300.144 21.341,301.582 22.017 M318.220 22.095 C 318.567 22.331,318.920 22.707,319.006 22.932 C 319.091 23.156,319.331 23.405,319.539 23.485 C 319.747 23.566,320.076 23.808,320.271 24.024 C 320.999 24.831,321.045 25.082,320.919 27.590 C 320.780 30.375,320.408 31.167,319.238 31.167 C 318.569 31.167,318.508 30.774,318.858 28.711 C 319.080 27.408,318.671 24.516,318.212 24.135 C 317.223 23.315,313.621 23.939,313.028 25.034 C 312.875 25.316,312.534 25.742,312.269 25.982 C 311.211 26.939,311.165 28.395,312.175 28.973 C 312.442 29.125,312.742 29.475,312.844 29.750 C 313.333 31.079,313.532 31.161,316.288 31.164 L 318.494 31.167 318.604 31.606 C 318.665 31.848,318.647 32.317,318.565 32.648 L 318.417 33.250 315.750 33.356 C 314.283 33.415,312.915 33.517,312.708 33.584 C 312.354 33.699,312.333 33.660,312.330 32.894 C 312.324 31.533,311.858 30.761,310.808 30.371 C 309.757 29.981,309.408 29.030,309.584 27.037 C 309.742 25.251,309.819 25.045,310.437 24.751 C 311.100 24.437,311.422 23.981,311.567 23.152 C 311.785 21.903,312.261 21.722,315.420 21.689 C 317.494 21.668,317.617 21.686,318.220 22.095 M334.850 22.048 C 335.162 22.258,335.567 22.668,335.750 22.959 C 335.933 23.251,336.217 23.535,336.381 23.591 C 337.266 23.894,337.556 24.856,337.556 27.487 C 337.556 30.318,337.383 30.849,336.287 31.389 C 335.899 31.580,335.627 31.851,335.561 32.112 C 335.417 32.689,334.295 33.478,333.765 33.377 C 332.683 33.170,333.205 31.642,334.471 31.310 C 335.392 31.068,335.486 30.818,335.508 28.543 C 335.548 24.536,334.783 23.833,330.379 23.833 C 327.765 23.833,326.994 23.118,328.533 22.121 C 329.537 21.470,333.917 21.419,334.850 22.048 M354.090 22.224 L 354.735 22.782 354.044 23.282 C 353.374 23.768,353.285 23.785,350.885 23.891 C 347.583 24.037,347.571 24.041,347.354 24.903 C 346.902 26.698,345.312 27.193,345.057 25.618 C 344.939 24.894,345.676 24.000,346.392 24.000 C 346.944 24.000,347.333 23.588,347.333 23.003 C 347.333 21.926,348.025 21.667,350.902 21.667 L 353.444 21.667 354.090 22.224 M370.766 22.203 L 371.377 22.739 370.773 23.261 L 370.169 23.783 367.626 23.878 C 364.644 23.989,364.167 24.117,364.167 24.808 C 364.167 25.619,363.003 26.797,362.450 26.545 C 361.220 25.985,361.829 24.176,363.329 23.937 C 363.904 23.845,363.973 23.777,364.078 23.209 C 364.141 22.865,364.388 22.377,364.628 22.125 L 365.062 21.667 367.609 21.667 L 370.155 21.667 370.766 22.203 M296.517 24.442 L 295.333 25.051 295.333 28.685 L 295.333 32.319 296.047 32.738 C 297.466 33.569,298.018 33.679,299.424 33.410 C 300.549 33.195,301.333 32.929,301.333 32.763 C 301.333 32.731,301.558 32.077,301.833 31.311 C 302.483 29.493,302.507 28.070,301.917 26.333 C 301.309 24.548,301.208 24.438,299.868 24.115 C 298.225 23.718,297.855 23.754,296.517 24.442 M327.363 24.583 C 327.644 25.198,327.102 25.810,326.643 25.396 C 326.357 25.137,326.356 25.096,326.623 24.644 C 326.969 24.058,327.119 24.046,327.363 24.583 M29.833 24.449 C 29.325 24.631,29.167 25.068,29.167 26.289 C 29.167 28.058,29.797 28.613,31.320 28.187 L 31.722 28.075 31.278 27.784 C 30.604 27.342,30.599 25.182,31.271 24.822 L 31.708 24.588 31.312 24.477 C 30.828 24.342,30.169 24.329,29.833 24.449 M113.455 24.563 C 113.293 24.688,113.040 25.157,112.891 25.604 C 112.743 26.051,112.475 26.579,112.295 26.777 C 111.858 27.260,111.907 30.436,112.359 30.941 C 112.511 31.111,112.718 31.561,112.819 31.940 C 113.070 32.881,113.578 33.195,114.616 33.052 L 115.417 32.942 114.833 32.706 C 112.209 31.646,112.033 26.103,114.583 24.833 C 115.163 24.544,115.196 24.500,114.833 24.498 C 114.604 24.497,114.267 24.459,114.083 24.415 C 113.900 24.371,113.617 24.437,113.455 24.563 M48.346 24.682 C 47.788 24.906,46.476 26.125,46.132 26.741 C 45.798 27.338,45.749 27.651,46.033 27.367 C 46.143 27.257,46.370 27.167,46.538 27.167 C 46.906 27.167,48.333 25.779,48.333 25.421 C 48.333 25.281,48.483 25.017,48.667 24.833 C 49.031 24.469,48.962 24.437,48.346 24.682 M132.180 24.682 C 131.621 24.906,130.309 26.125,129.965 26.741 C 129.631 27.338,129.582 27.651,129.867 27.367 C 129.977 27.257,130.204 27.167,130.371 27.167 C 130.739 27.167,132.167 25.779,132.167 25.421 C 132.167 25.281,132.317 25.017,132.500 24.833 C 132.864 24.469,132.795 24.437,132.180 24.682 M298.569 24.934 C 298.713 24.990,298.994 25.324,299.193 25.678 C 299.395 26.037,299.799 26.437,300.108 26.584 C 300.868 26.945,301.000 27.271,301.000 28.793 C 301.000 30.227,300.913 30.398,299.865 31.016 C 299.562 31.194,299.239 31.554,299.148 31.814 C 298.929 32.443,298.338 32.709,297.673 32.477 L 297.167 32.301 297.167 28.728 C 297.167 25.179,297.169 25.155,297.542 25.005 C 298.003 24.820,298.230 24.804,298.569 24.934 M316.770 25.743 C 318.374 27.347,317.460 30.006,315.285 30.062 L 314.439 30.083 314.141 29.250 C 313.977 28.792,313.626 28.221,313.361 27.982 L 312.880 27.547 313.423 27.062 C 313.761 26.760,314.043 26.294,314.167 25.830 C 314.516 24.532,315.525 24.499,316.770 25.743 M344.933 28.248 C 345.935 29.275,346.012 29.320,346.452 29.143 C 348.743 28.224,353.142 29.007,353.834 30.458 C 354.063 30.939,354.631 31.726,355.096 32.208 C 356.787 33.960,356.913 37.098,355.324 37.890 C 355.029 38.037,354.872 38.318,354.731 38.955 C 354.472 40.120,353.227 41.853,352.227 42.439 C 350.284 43.577,345.335 42.924,345.332 41.530 C 345.331 40.850,344.811 40.133,344.162 39.917 C 342.565 39.384,342.018 33.504,343.114 28.668 C 343.525 26.855,343.565 26.846,344.933 28.248 M361.726 28.257 C 362.718 29.239,362.864 29.329,363.188 29.155 C 363.833 28.810,367.437 28.753,368.664 29.069 C 370.080 29.433,370.395 29.659,370.645 30.494 C 370.773 30.920,371.177 31.523,371.691 32.053 C 372.151 32.528,372.651 33.142,372.801 33.417 C 373.326 34.379,372.997 37.563,372.349 37.791 C 371.788 37.988,371.500 38.392,371.499 38.984 C 371.495 40.802,368.823 43.000,366.616 43.000 C 363.570 43.000,362.289 42.535,362.085 41.357 C 361.944 40.544,361.692 40.241,360.884 39.917 C 359.211 39.248,358.749 31.122,360.185 27.625 C 360.441 27.003,360.472 27.015,361.726 28.257 M99.014 28.873 C 98.897 29.060,98.689 29.596,98.551 30.065 C 98.283 30.979,97.920 31.500,97.553 31.500 C 97.428 31.500,97.254 31.688,97.167 31.917 C 97.080 32.146,96.906 32.333,96.781 32.333 C 96.655 32.333,96.464 32.629,96.356 32.991 C 96.240 33.378,95.937 33.823,95.621 34.071 C 94.997 34.560,95.119 35.044,95.890 35.136 C 96.294 35.184,96.322 35.150,96.232 34.702 C 96.144 34.261,96.227 34.145,97.107 33.475 C 97.718 33.011,98.135 32.552,98.228 32.243 C 98.677 30.743,99.315 29.930,99.806 30.233 C 100.123 30.429,100.160 30.051,99.891 29.366 C 99.574 28.560,99.304 28.408,99.014 28.873 M35.500 28.745 C 35.500 29.198,36.454 30.775,37.079 31.358 C 38.419 32.604,38.583 33.070,38.583 35.611 C 38.583 37.582,38.548 37.854,38.232 38.281 C 38.038 38.542,37.823 38.942,37.754 39.170 C 37.595 39.689,37.183 40.167,36.894 40.167 C 36.773 40.167,36.525 40.457,36.345 40.811 C 36.164 41.166,35.630 41.878,35.158 42.395 C 34.339 43.290,34.319 43.333,34.727 43.333 C 35.246 43.333,36.217 42.517,36.494 41.848 C 36.607 41.576,36.913 41.272,37.191 41.157 C 38.061 40.796,38.497 40.018,38.742 38.387 C 38.995 36.712,39.238 35.766,39.571 35.171 C 39.775 34.806,39.766 34.706,39.487 34.315 C 39.314 34.072,39.061 33.398,38.926 32.818 C 38.639 31.588,38.311 31.092,37.360 30.447 C 36.979 30.189,36.667 29.884,36.667 29.770 C 36.667 29.656,36.456 29.361,36.199 29.115 C 35.764 28.698,35.500 28.558,35.500 28.745 M52.827 29.066 C 53.235 30.139,53.537 30.511,54.295 30.873 C 55.235 31.323,55.447 31.710,55.594 33.255 C 55.666 34.005,55.798 34.490,55.968 34.625 C 56.201 34.810,56.202 34.833,55.974 34.833 C 55.767 34.833,55.696 35.154,55.609 36.472 C 55.421 39.341,54.987 40.667,54.234 40.667 C 53.854 40.667,53.012 41.513,52.856 42.052 C 52.772 42.344,52.646 42.722,52.577 42.892 C 52.040 44.211,54.982 41.252,55.701 39.750 C 55.965 39.200,56.400 38.412,56.669 38.000 C 57.333 36.980,57.653 35.149,57.359 34.040 C 57.144 33.226,56.895 32.811,55.750 31.362 C 55.383 30.898,54.933 30.276,54.750 29.981 C 54.110 28.951,52.490 28.179,52.827 29.066 M136.660 29.066 C 137.068 30.139,137.370 30.511,138.128 30.873 C 139.069 31.323,139.280 31.710,139.428 33.255 C 139.499 34.005,139.632 34.490,139.801 34.625 C 140.035 34.810,140.035 34.833,139.807 34.833 C 139.600 34.833,139.529 35.154,139.443 36.472 C 139.255 39.341,138.820 40.667,138.067 40.667 C 137.687 40.667,136.845 41.513,136.690 42.052 C 136.605 42.344,136.480 42.722,136.410 42.892 C 135.873 44.211,138.816 41.252,139.535 39.750 C 139.798 39.200,140.234 38.412,140.502 38.000 C 141.167 36.980,141.486 35.149,141.193 34.040 C 140.977 33.226,140.728 32.811,139.583 31.362 C 139.217 30.898,138.767 30.276,138.583 29.981 C 137.943 28.951,136.323 28.179,136.660 29.066 M203.532 31.655 C 203.815 32.226,203.820 32.325,203.587 32.883 C 203.289 33.596,203.494 33.596,204.458 32.884 C 205.149 32.373,205.136 32.182,204.371 31.652 C 203.327 30.928,203.173 30.929,203.532 31.655 M347.583 31.120 C 347.136 31.229,346.700 31.633,346.564 32.064 C 346.502 32.258,346.205 32.719,345.902 33.089 C 344.535 34.761,344.452 38.220,345.764 38.859 C 346.019 38.982,346.350 39.307,346.501 39.581 C 347.012 40.509,347.691 40.752,349.712 40.731 C 351.738 40.710,352.042 40.569,352.334 39.515 C 352.644 38.398,353.205 37.616,353.808 37.460 C 354.308 37.330,354.354 37.270,354.253 36.870 C 354.192 36.625,354.065 36.013,353.972 35.510 C 353.878 35.002,353.632 34.392,353.417 34.137 C 353.205 33.884,352.870 33.194,352.673 32.604 C 352.182 31.127,350.076 30.513,347.583 31.120 M364.202 31.188 C 363.849 31.290,363.586 31.507,363.462 31.798 C 363.357 32.047,362.995 32.625,362.659 33.083 C 361.833 34.206,361.667 34.787,361.667 36.538 C 361.667 38.126,361.656 38.103,362.856 39.106 C 362.981 39.211,363.291 39.564,363.544 39.892 C 364.528 41.165,369.000 41.136,369.000 39.856 C 369.000 39.128,369.976 37.576,370.537 37.411 C 370.867 37.314,371.072 37.151,371.054 37.000 C 370.893 35.630,370.590 34.544,370.300 34.292 C 370.115 34.131,369.764 33.456,369.520 32.792 C 368.893 31.083,366.778 30.445,364.202 31.188 M46.495 31.640 C 46.304 31.704,45.973 32.442,45.477 33.907 C 45.111 34.989,45.152 36.448,45.576 37.417 C 45.697 37.692,45.848 38.292,45.912 38.750 C 46.068 39.855,46.368 40.167,47.276 40.167 C 47.674 40.167,48.000 40.129,48.000 40.084 C 48.000 39.904,46.793 38.333,46.655 38.333 C 46.273 38.333,45.954 37.229,45.986 36.018 C 46.030 34.350,46.343 33.699,47.848 32.141 L 48.279 31.695 47.472 31.639 C 47.028 31.608,46.588 31.609,46.495 31.640 M130.328 31.640 C 130.137 31.704,129.806 32.442,129.310 33.907 C 128.944 34.989,128.985 36.448,129.409 37.417 C 129.530 37.692,129.681 38.292,129.746 38.750 C 129.901 39.855,130.201 40.167,131.109 40.167 C 131.507 40.167,131.833 40.129,131.833 40.084 C 131.833 39.904,130.626 38.333,130.489 38.333 C 130.107 38.333,129.787 37.229,129.819 36.018 C 129.864 34.350,130.176 33.699,131.681 32.141 L 132.113 31.695 131.305 31.639 C 130.861 31.608,130.422 31.609,130.328 31.640 M351.129 32.208 C 351.487 32.647,351.561 36.523,351.240 37.938 C 350.870 39.562,350.943 39.486,349.598 39.677 C 348.296 39.861,347.909 39.724,347.755 39.025 C 347.647 38.529,347.025 37.849,346.375 37.515 C 346.031 37.338,346.000 37.205,346.000 35.917 C 346.000 34.628,346.031 34.496,346.375 34.319 C 346.986 34.004,347.667 33.293,347.667 32.969 C 347.667 32.123,350.545 31.491,351.129 32.208 M368.030 32.750 C 368.343 34.521,368.047 38.963,367.583 39.468 C 367.557 39.497,367.036 39.591,366.425 39.677 C 365.079 39.868,364.757 39.732,364.391 38.819 C 364.219 38.387,363.870 37.979,363.396 37.653 L 362.667 37.151 362.667 35.917 L 362.667 34.683 363.393 34.183 C 363.808 33.898,364.213 33.447,364.337 33.133 C 364.762 32.060,364.914 31.983,366.487 32.036 L 367.912 32.083 368.030 32.750 M320.269 33.871 C 321.071 34.491,321.167 34.624,321.167 35.118 C 321.167 35.668,321.579 36.333,321.920 36.333 C 322.936 36.333,322.453 38.445,321.067 40.064 C 320.762 40.420,320.411 41.020,320.286 41.398 C 319.901 42.560,318.419 43.000,314.887 43.000 L 312.512 43.000 311.922 42.483 C 311.567 42.170,311.333 41.813,311.333 41.580 C 311.333 40.916,311.153 40.679,310.566 40.569 C 309.018 40.279,308.318 35.560,309.629 34.250 C 310.606 33.273,312.902 33.923,311.991 34.918 C 311.822 35.103,311.503 35.665,311.281 36.168 L 310.879 37.083 311.199 38.167 C 311.375 38.762,311.562 39.421,311.614 39.630 C 311.737 40.130,311.973 40.235,313.725 40.578 C 316.982 41.215,318.672 40.802,319.122 39.261 C 319.397 38.316,319.786 37.667,320.077 37.667 C 320.189 37.667,320.412 37.523,320.571 37.347 C 320.881 37.004,320.570 36.667,319.943 36.667 C 319.093 36.667,318.544 33.922,319.333 33.621 C 319.729 33.471,319.762 33.480,320.269 33.871 M332.910 34.225 C 333.222 35.118,331.432 36.122,330.569 35.539 C 329.737 34.978,330.859 33.615,332.080 33.702 C 332.641 33.743,332.770 33.824,332.910 34.225 M316.541 34.583 C 317.230 34.673,317.344 34.745,317.424 35.135 C 317.474 35.382,317.587 35.855,317.674 36.186 C 317.938 37.184,317.876 39.423,317.579 39.671 C 316.940 40.201,312.500 39.650,312.500 39.040 C 312.500 38.875,312.402 38.363,312.283 37.904 C 312.028 36.920,312.262 36.359,313.153 35.818 C 313.439 35.643,313.758 35.316,313.861 35.090 C 314.074 34.622,314.719 34.327,315.333 34.417 C 315.563 34.451,316.106 34.525,316.541 34.583 M329.970 36.641 C 330.069 37.671,329.069 38.220,328.413 37.496 C 328.115 37.167,328.121 37.146,328.677 36.573 C 329.401 35.825,329.894 35.851,329.970 36.641 M327.736 39.234 C 327.840 39.787,328.283 40.304,328.947 40.646 C 329.185 40.768,330.606 40.833,333.042 40.833 L 336.774 40.833 337.678 41.292 C 338.790 41.855,338.796 41.950,337.750 42.488 L 336.917 42.917 331.896 42.965 L 326.875 43.014 326.337 42.561 L 325.800 42.109 325.917 40.846 C 326.141 38.439,327.381 37.340,327.736 39.234 M27.323 38.510 C 27.120 38.638,27.124 38.662,27.346 38.664 C 27.490 38.666,27.785 38.854,28.000 39.083 C 28.475 39.589,28.781 39.636,28.441 39.151 C 28.057 38.602,27.595 38.338,27.323 38.510 " stroke="none" fill="#62bcf8" fill-rule="evenodd"></path><path id="path4" d="M0.000 29.917 L 0.000 59.833 200.000 59.833 L 400.000 59.833 400.000 29.917 L 400.000 0.000 200.000 0.000 L 0.000 0.000 0.000 29.917 M377.461 4.150 C 378.160 4.371,379.000 5.150,379.000 5.576 C 379.000 5.973,379.415 6.146,380.776 6.316 C 382.590 6.544,383.220 6.867,383.708 7.818 C 384.039 8.465,384.220 8.622,384.878 8.833 C 385.820 9.136,386.087 9.385,386.383 10.241 C 386.618 10.920,386.709 11.000,387.638 11.345 C 388.266 11.578,388.661 12.092,388.818 12.879 C 388.903 13.308,389.087 13.501,389.726 13.833 C 390.166 14.063,390.605 14.392,390.701 14.565 C 390.972 15.054,391.329 16.521,391.334 17.167 C 391.341 18.128,391.493 18.401,392.222 18.750 C 393.550 19.387,393.837 21.173,393.828 28.750 C 393.819 36.746,393.428 38.833,391.938 38.833 C 391.569 38.833,391.334 39.362,391.331 40.197 C 391.327 41.946,390.431 43.667,389.526 43.667 C 389.204 43.667,388.926 44.110,388.755 44.895 C 388.622 45.504,388.046 46.017,387.242 46.243 C 386.684 46.399,386.579 46.515,386.335 47.246 C 386.049 48.100,385.428 48.659,384.750 48.671 C 384.280 48.680,383.874 49.030,383.747 49.536 C 383.523 50.430,382.079 51.155,380.500 51.167 C 379.462 51.175,379.182 51.333,378.839 52.109 C 378.395 53.114,377.797 53.337,375.084 53.512 C 372.202 53.698,257.517 53.695,254.795 53.509 C 251.978 53.317,251.297 52.966,250.787 51.443 C 250.761 51.366,250.217 51.244,249.578 51.172 C 247.401 50.928,246.167 50.334,246.167 49.530 C 246.167 49.150,245.663 48.667,245.266 48.666 C 244.689 48.665,243.904 48.076,243.681 47.478 C 243.327 46.526,243.238 46.423,242.567 46.200 C 241.718 45.918,241.469 45.653,241.167 44.711 C 240.955 44.054,240.798 43.872,240.152 43.541 C 239.205 43.056,238.917 42.494,238.663 40.641 C 238.471 39.236,238.303 38.833,237.909 38.833 C 237.476 38.833,236.705 37.992,236.498 37.295 C 236.349 36.793,236.265 34.589,236.212 29.805 C 236.111 20.583,236.278 19.376,237.747 18.686 C 238.433 18.363,238.472 18.305,238.576 17.465 C 238.894 14.892,239.224 14.172,240.235 13.838 C 240.637 13.706,240.855 13.498,240.995 13.118 C 241.482 11.791,241.707 11.501,242.402 11.303 C 243.310 11.044,243.446 10.921,243.572 10.254 C 243.681 9.668,244.484 8.833,244.938 8.833 C 245.370 8.833,246.167 8.334,246.167 8.063 C 246.167 7.211,247.638 6.335,249.072 6.332 C 250.160 6.330,250.752 6.040,251.051 5.360 C 251.404 4.560,252.076 4.190,253.500 4.010 C 255.522 3.755,376.645 3.892,377.461 4.150 M138.811 5.171 C 141.176 5.380,141.968 5.568,143.333 6.247 C 144.397 6.776,145.704 7.260,147.141 7.657 C 147.542 7.767,148.175 8.139,148.558 8.490 C 148.939 8.838,149.682 9.366,150.211 9.662 C 151.508 10.390,154.587 13.446,155.505 14.917 C 155.905 15.558,156.508 16.401,156.844 16.790 C 157.194 17.194,157.545 17.836,157.663 18.290 C 157.980 19.498,158.444 20.731,158.986 21.805 C 160.600 25.002,160.595 32.428,158.978 35.583 C 158.472 36.570,157.813 38.408,157.590 39.454 C 157.527 39.749,157.159 40.349,156.773 40.787 C 156.387 41.225,155.811 42.023,155.494 42.561 C 154.652 43.988,151.956 46.645,150.214 47.765 C 149.409 48.283,148.690 48.811,148.617 48.937 C 148.412 49.289,147.592 49.660,146.017 50.113 C 145.228 50.340,144.133 50.773,143.583 51.076 C 141.240 52.365,147.228 52.250,82.583 52.250 C 18.227 52.250,24.201 52.363,21.722 51.101 C 21.096 50.782,19.926 50.331,19.123 50.099 C 17.414 49.604,17.220 49.511,16.667 48.916 C 16.438 48.670,15.746 48.174,15.129 47.813 C 13.668 46.958,10.619 43.943,9.757 42.500 C 9.401 41.904,8.827 41.105,8.483 40.725 C 8.035 40.230,7.757 39.686,7.503 38.808 C 7.052 37.251,6.726 36.392,6.323 35.702 C 4.625 32.788,4.627 24.795,6.328 21.750 C 6.767 20.963,7.267 19.582,7.654 18.083 C 7.752 17.703,8.111 17.116,8.488 16.718 C 8.851 16.333,9.277 15.771,9.433 15.468 C 9.938 14.493,10.835 13.284,11.322 12.925 C 11.582 12.733,12.033 12.315,12.323 11.996 C 13.566 10.630,13.868 10.376,15.162 9.606 C 15.912 9.161,16.566 8.689,16.616 8.558 C 16.747 8.217,17.509 7.861,19.312 7.297 C 20.180 7.026,21.272 6.592,21.737 6.333 C 22.834 5.723,24.218 5.357,26.083 5.184 C 28.309 4.978,136.485 4.965,138.811 5.171 M261.667 22.649 C 260.702 22.918,262.036 23.038,265.643 23.008 C 269.410 22.976,270.065 22.916,269.639 22.646 C 269.375 22.479,262.269 22.482,261.667 22.649 M280.333 22.653 C 278.957 22.843,282.333 23.036,284.482 22.890 C 286.331 22.765,286.373 22.754,285.417 22.648 C 284.187 22.511,281.346 22.514,280.333 22.653 M295.261 22.650 C 294.542 22.931,295.477 23.054,298.062 23.016 C 300.746 22.978,301.228 22.913,300.809 22.648 C 300.533 22.473,295.710 22.474,295.261 22.650 M313.833 22.654 L 313.083 22.763 313.917 22.854 C 315.237 22.998,317.494 22.933,317.541 22.750 C 317.590 22.556,314.972 22.488,313.833 22.654 M329.194 22.644 C 328.779 22.912,329.460 23.000,331.944 23.000 C 333.804 23.000,334.345 22.952,334.292 22.792 C 334.210 22.545,329.557 22.409,329.194 22.644 M348.449 22.607 C 348.046 23.010,349.161 23.096,352.016 22.883 C 353.147 22.798,353.444 22.734,353.083 22.652 C 352.434 22.506,348.588 22.468,348.449 22.607 M365.116 22.607 C 364.713 23.009,365.813 23.095,368.683 22.886 C 369.744 22.808,370.115 22.733,369.833 22.652 C 369.308 22.502,365.259 22.463,365.116 22.607 M302.833 25.250 C 302.833 25.387,302.908 25.500,303.000 25.500 C 303.092 25.500,303.167 25.387,303.167 25.250 C 303.167 25.113,303.092 25.000,303.000 25.000 C 302.908 25.000,302.833 25.113,302.833 25.250 M348.194 29.813 C 347.830 30.043,348.386 30.168,349.722 30.155 C 351.123 30.141,351.824 29.958,351.158 29.780 C 350.571 29.623,348.457 29.646,348.194 29.813 M364.926 29.817 C 364.436 30.009,365.142 30.162,366.528 30.164 C 367.794 30.167,368.327 30.037,367.972 29.813 C 367.699 29.639,365.371 29.643,364.926 29.817 M205.112 30.335 C 207.083 30.899,207.371 33.189,205.583 34.083 C 204.956 34.397,204.583 34.417,199.232 34.417 L 193.547 34.417 192.609 33.500 C 191.490 32.406,191.468 32.237,192.333 31.437 C 192.700 31.097,193.000 30.757,193.000 30.680 C 193.000 30.494,193.778 30.196,194.500 30.106 C 195.747 29.951,204.425 30.138,205.112 30.335 M343.611 31.518 C 343.469 32.048,343.501 34.640,343.656 35.167 C 343.748 35.480,343.811 35.274,343.910 34.333 C 343.982 33.646,344.107 32.910,344.187 32.699 C 344.290 32.425,344.244 32.143,344.025 31.717 C 343.728 31.138,343.715 31.131,343.611 31.518 M360.444 31.444 C 360.383 31.506,360.333 32.383,360.333 33.394 C 360.333 35.493,360.521 35.551,360.798 33.538 C 361.006 32.031,360.840 31.049,360.444 31.444 M261.570 32.189 C 261.337 32.566,261.967 32.619,265.723 32.540 C 269.326 32.463,269.832 32.429,269.653 32.273 C 269.456 32.102,261.673 32.021,261.570 32.189 M281.374 32.111 C 281.259 32.157,281.207 32.264,281.259 32.348 C 281.388 32.557,283.833 32.544,283.833 32.333 C 283.833 32.242,283.427 32.167,282.930 32.167 C 282.434 32.167,281.927 32.135,281.805 32.097 C 281.683 32.058,281.489 32.064,281.374 32.111 M314.583 32.333 C 314.640 32.425,315.277 32.500,316.000 32.500 C 316.723 32.500,317.360 32.425,317.417 32.333 C 317.482 32.227,316.971 32.167,316.000 32.167 C 315.029 32.167,314.518 32.227,314.583 32.333 M295.292 34.439 C 294.319 34.724,295.582 35.125,297.000 34.982 C 297.596 34.922,298.702 34.864,299.458 34.853 C 300.251 34.842,300.833 34.763,300.833 34.667 C 300.833 34.566,300.124 34.499,299.042 34.499 C 298.056 34.498,296.875 34.465,296.417 34.425 C 295.958 34.386,295.452 34.392,295.292 34.439 M286.026 34.740 C 286.057 34.893,286.158 35.014,286.250 35.009 C 286.497 34.996,286.452 34.623,286.192 34.536 C 286.052 34.490,285.990 34.566,286.026 34.740 M326.796 41.345 C 326.677 42.158,326.790 42.175,331.895 42.128 C 338.164 42.069,338.421 41.781,332.305 41.667 C 328.054 41.587,327.839 41.567,327.365 41.216 L 326.869 40.850 326.796 41.345 M261.710 41.734 C 261.166 42.041,262.109 42.133,265.833 42.138 C 269.251 42.143,270.681 42.008,269.667 41.776 C 268.891 41.599,262.013 41.562,261.710 41.734 M278.761 41.816 C 278.592 42.089,279.175 42.167,281.389 42.164 C 283.716 42.162,284.526 42.058,284.139 41.813 C 283.841 41.624,278.878 41.626,278.761 41.816 M312.449 41.773 C 312.148 42.075,312.740 42.166,314.968 42.164 C 317.305 42.162,318.234 42.023,317.584 41.773 C 317.222 41.634,312.588 41.634,312.449 41.773 M348.014 41.818 C 347.843 41.929,347.982 42.001,348.514 42.080 C 349.502 42.227,351.093 42.124,351.043 41.917 C 350.990 41.702,348.326 41.616,348.014 41.818 M364.758 41.817 C 364.482 41.925,364.517 41.962,364.987 42.056 C 366.233 42.305,368.113 42.151,367.906 41.816 C 367.795 41.636,365.218 41.637,364.758 41.817 " stroke="none" fill="#fbfbfc" fill-rule="evenodd"></path></g></svg>